<?xml version="1.0" encoding="UTF-8"?>
<svg version="1.1" xmlns="http://www.w3.org/2000/svg" width="400" height="400">
<path d="M0 0 C2.27280395 1.70968267 4.33822919 3.41211682 6.4375 5.3125 C7.68210426 6.40906691 8.92690146 7.50541486 10.171875 8.6015625 C11.12223633 9.44702637 11.12223633 9.44702637 12.09179688 10.30957031 C15.09452843 12.96961551 18.13995813 15.57905362 21.1875 18.1875 C21.77273437 18.69007324 22.35796875 19.19264648 22.9609375 19.71044922 C26.41427687 22.66921 29.90464941 25.57359154 33.4375 28.4375 C37.89598924 32.05426855 42.23757733 35.78848178 46.5625 39.5625 C50.646854 43.12607471 54.73930254 46.64673894 59 50 C65.87450052 55.42006074 72.4080008 61.24321574 79 67 C86.64690705 73.67224526 94.30348425 80.3037131 102.19140625 86.69140625 C105.5029842 89.41344042 108.75314521 92.20138047 112 95 C117.91978217 100.1020833 123.92133086 105.0874429 130 110 C129.39722433 114.61894378 128.14849992 118.5115256 126.375 122.8125 C125.98066772 123.77820923 125.98066772 123.77820923 125.57836914 124.76342773 C124.14277386 128.27092937 122.68031273 131.76724945 121.22265625 135.265625 C120.62723459 136.69776307 120.03218272 138.13005494 119.4375 139.5625 C119.14238525 140.27180664 118.84727051 140.98111328 118.54321289 141.71191406 C116.65657012 146.28680012 114.94019627 150.8891144 113.3125 155.5625 C111.79745336 159.90397792 110.19181875 164.01944787 107.9921875 168.05859375 C106.83284632 170.17526622 106.83284632 170.17526622 106.01953125 173.39453125 C103.7711696 178.64140238 98.77325303 180.10458869 93.8125 182.25 C92.79671875 182.71180664 91.7809375 183.17361328 90.734375 183.64941406 C88.58718417 184.62355371 86.43551342 185.58787075 84.27978516 186.54296875 C80.02221686 188.43437619 75.79394867 190.38678494 71.5637207 192.33837891 C68.54309764 193.7301426 65.51841606 195.11266034 62.4921875 196.4921875 C49.50022416 202.4024993 49.50022416 202.4024993 36.6875 208.6875 C32.78028066 210.66681506 28.81400189 212.30913758 24.73046875 213.88671875 C20.30247027 215.69212585 16.00352742 217.77190439 11.6875 219.828125 C9 221 9 221 7 221 C7 221.66 7 222.32 7 223 C7.52851563 223.21914062 8.05703125 223.43828125 8.6015625 223.6640625 C11.88099417 225.49071662 14.56779984 227.91094974 17.375 230.375 C18.63142773 231.46493908 19.88794053 232.5547801 21.14453125 233.64453125 C21.78471191 234.20221191 22.42489258 234.75989258 23.08447266 235.33447266 C26.06434614 237.92543581 29.06314128 240.49414652 32.0625 243.0625 C32.64177246 243.55927246 33.22104492 244.05604492 33.81787109 244.56787109 C38.22137863 248.34177911 42.64585967 252.09032796 47.07714844 255.83154297 C53.41433765 261.18644841 59.7067202 266.5936292 66 272 C62.32317515 282.13066087 58.37032962 292.14098273 54.3125 302.125 C53.83707764 303.29844971 53.36165527 304.47189941 52.87182617 305.6809082 C52.41525635 306.79941162 51.95868652 307.91791504 51.48828125 309.0703125 C50.87786987 310.56715576 50.87786987 310.56715576 50.25512695 312.09423828 C46.08302741 321.75312346 40.99033637 324.78461598 31.625 328.8125 C30.84205566 329.15506836 30.05911133 329.49763672 29.25244141 329.85058594 C26.83739975 330.90610263 24.41911461 331.95385636 22 333 C19.8088247 333.95073605 17.61813595 334.90256182 15.42822266 335.85620117 C14.07454475 336.44547761 12.72006829 337.0329235 11.36474609 337.6184082 C7.91406661 339.11902804 4.56203744 340.71565511 1.25 342.5 C-2 344 -2 344 -3.8828125 343.84375 C-6.76473096 342.69523637 -8.75030173 340.99391575 -11.125 339 C-12.09695312 338.1853125 -13.06890625 337.370625 -14.0703125 336.53125 C-17.58921734 333.49091622 -21.0359881 330.37872806 -24.47265625 327.24609375 C-27.06962393 324.93812402 -29.73404013 322.74444137 -32.4375 320.5625 C-37.20996203 316.70291397 -41.73109109 312.62800009 -46.24609375 308.47265625 C-49.83207284 305.25290481 -53.56701492 302.24094824 -57.31640625 299.21484375 C-59.94708557 297.04367173 -62.47942424 294.79758643 -65 292.5 C-68.41739372 289.38541332 -71.9052235 286.4081338 -75.5 283.5 C-79.96420457 279.88850866 -84.23002114 276.11339306 -88.47265625 272.24609375 C-91.06962393 269.93812402 -93.73404013 267.74444137 -96.4375 265.5625 C-101.20996203 261.70291397 -105.73109109 257.62800009 -110.24609375 253.47265625 C-113.82047426 250.26331886 -117.54204741 247.26001998 -121.28125 244.24609375 C-124.96738515 241.20079532 -128.4885839 237.98972108 -132.00390625 234.75 C-133.88450675 232.95218021 -133.88450675 232.95218021 -136 232 C-135.40532829 228.64643546 -134.57610618 225.64094891 -133.29296875 222.48828125 C-132.95330078 221.64716797 -132.61363281 220.80605469 -132.26367188 219.93945312 C-131.90853516 219.07255859 -131.55339844 218.20566406 -131.1875 217.3125 C-130.67219727 216.04116211 -130.67219727 216.04116211 -130.14648438 214.74414062 C-129.44988805 213.02552117 -128.75179713 211.30750678 -128.05224609 209.59008789 C-125.81829132 204.09124191 -123.62329074 198.57673799 -121.4375 193.05859375 C-119.05642898 187.06062408 -116.67891528 181.07657123 -113.95703125 175.22265625 C-112.98248346 173.08379975 -112.98248346 173.08379975 -112.44433594 171.09790039 C-111.24833176 167.24898177 -110.53706312 165.4016627 -107.2265625 162.92578125 C-106.03804687 162.39339844 -104.84953125 161.86101562 -103.625 161.3125 C-102.95090088 161.00127197 -102.27680176 160.69004395 -101.58227539 160.36938477 C-99.06675535 159.21810394 -96.53343563 158.1113017 -94 157 C-91.67220493 155.95267888 -89.34545652 154.90302959 -87.01953125 153.8515625 C-82.10287484 151.63182898 -77.17750263 149.43292874 -72.24609375 147.24609375 C-65.42961044 144.21029342 -58.66719922 141.06840298 -51.91317749 137.89700317 C-48.67305909 136.37785688 -45.42803876 134.86925236 -42.18359375 133.359375 C-40.24919662 132.45816001 -38.31490511 131.55671859 -36.38061523 130.65527344 C-35.06922403 130.04431244 -33.75769735 129.43364217 -32.44604492 128.82324219 C-30.5040291 127.91940192 -28.56251635 127.01448867 -26.62109375 126.109375 C-25.4911499 125.58311523 -24.36120605 125.05685547 -23.19702148 124.51464844 C-20.10898986 123.05163598 -17.0502751 121.53996708 -14 120 C-23.7874627 111.55217055 -23.7874627 111.55217055 -33.75 103.3125 C-38.150067 99.74348518 -42.34902779 95.99938541 -46.53515625 92.18359375 C-48.96294957 90.0328228 -51.45256018 88.00695337 -54 86 C-59.93767108 81.32126551 -65.65258636 76.34741364 -71 71 C-70.86921459 65.89936906 -68.58105208 61.75459466 -66.44921875 57.234375 C-65.14193153 54.31676364 -63.96879997 51.37984599 -62.86547852 48.37963867 C-62.3653567 47.02569861 -61.85111961 45.67690134 -61.32397461 44.33325195 C-59.94630239 40.78941797 -58.82469494 37.37703303 -58.046875 33.65234375 C-56.51750846 27.45277331 -54.69516452 22.83046989 -49.25292969 19.13427734 C-42.2508547 15.31448711 -34.92223311 12.35419431 -27.51318359 9.43261719 C-21.77661869 7.09334249 -16.28165158 4.27922898 -10.77441406 1.44921875 C-4.10968294 -1.81388286 -4.10968294 -1.81388286 0 0 Z " fill="#231F20" transform="translate(202,27)"/>
<path d="M0 0 C2.27280395 1.70968267 4.33822919 3.41211682 6.4375 5.3125 C7.68210426 6.40906691 8.92690146 7.50541486 10.171875 8.6015625 C11.12223633 9.44702637 11.12223633 9.44702637 12.09179688 10.30957031 C15.09452843 12.96961551 18.13995813 15.57905362 21.1875 18.1875 C21.77273437 18.69007324 22.35796875 19.19264648 22.9609375 19.71044922 C26.41427687 22.66921 29.90464941 25.57359154 33.4375 28.4375 C37.89598924 32.05426855 42.23757733 35.78848178 46.5625 39.5625 C50.646854 43.12607471 54.73930254 46.64673894 59 50 C65.87450052 55.42006074 72.4080008 61.24321574 79 67 C86.64690705 73.67224526 94.30348425 80.3037131 102.19140625 86.69140625 C105.5029842 89.41344042 108.75314521 92.20138047 112 95 C117.91978217 100.1020833 123.92133086 105.0874429 130 110 C129.39722433 114.61894378 128.14849992 118.5115256 126.375 122.8125 C126.11211182 123.45630615 125.84922363 124.1001123 125.57836914 124.76342773 C124.14277386 128.27092937 122.68031273 131.76724945 121.22265625 135.265625 C120.62723459 136.69776307 120.03218272 138.13005494 119.4375 139.5625 C119.14238525 140.27180664 118.84727051 140.98111328 118.54321289 141.71191406 C116.65657012 146.28680012 114.94019627 150.8891144 113.3125 155.5625 C111.79745336 159.90397792 110.19181875 164.01944787 107.9921875 168.05859375 C106.83284632 170.17526622 106.83284632 170.17526622 106.01953125 173.39453125 C103.7711696 178.64140238 98.77325303 180.10458869 93.8125 182.25 C92.79671875 182.71180664 91.7809375 183.17361328 90.734375 183.64941406 C88.58718417 184.62355371 86.43551342 185.58787075 84.27978516 186.54296875 C80.02221686 188.43437619 75.79394867 190.38678494 71.5637207 192.33837891 C68.54309764 193.7301426 65.51841606 195.11266034 62.4921875 196.4921875 C49.50022416 202.4024993 49.50022416 202.4024993 36.6875 208.6875 C32.78028066 210.66681506 28.81400189 212.30913758 24.73046875 213.88671875 C20.30247027 215.69212585 16.00352742 217.77190439 11.6875 219.828125 C9 221 9 221 7 221 C7 221.66 7 222.32 7 223 C7.55171875 223.25136719 8.1034375 223.50273437 8.671875 223.76171875 C11.41452071 225.22047494 13.78214553 226.9255294 16.25 228.8125 C17.58804688 229.81216797 17.58804688 229.81216797 18.953125 230.83203125 C21 233 21 233 21.296875 235.76171875 C21.19890625 236.50035156 21.1009375 237.23898437 21 238 C19.35 238 17.7 238 16 238 C16 238.66 16 239.32 16 240 C13.921875 240.38671875 13.921875 240.38671875 11 240 C7.8793961 237.68269123 5.20094484 234.8097012 2.5234375 232.00195312 C0.73249623 230.30055892 -0.7593786 229.04687332 -3 228 C-6.35055603 228.17638774 -9.01018159 229.552247 -12 231 C-13.46735596 231.64424927 -13.46735596 231.64424927 -14.96435547 232.30151367 C-18.18367191 233.72340741 -21.37396259 235.1979783 -24.5625 236.6875 C-25.66658203 237.19861328 -26.77066406 237.70972656 -27.90820312 238.23632812 C-30.60747498 239.4866402 -33.30464455 240.74127316 -36 242 C-34.76661202 245.70016395 -33.36179556 246.54703034 -30.3125 248.9375 C-29.33152344 249.72382813 -28.35054688 250.51015625 -27.33984375 251.3203125 C-26.80601074 251.74731445 -26.27217773 252.17431641 -25.72216797 252.61425781 C-22.57667917 255.14527488 -19.46830403 257.71807741 -16.375 260.3125 C-15.45134644 261.06744751 -15.45134644 261.06744751 -14.5090332 261.83764648 C-10.11223978 265.54421323 -10.11223978 265.54421323 -9.50634766 268.00463867 C-8.42583773 272.262598 -3.4831007 274.67793287 0 277 C-0.4979837 280.73487777 -0.87491756 282.81237635 -3 286 C-3.50789063 285.54109375 -4.01578125 285.0821875 -4.5390625 284.609375 C-9.26646349 280.3903703 -9.26646349 280.3903703 -14.4375 276.75 C-17 275 -17 275 -18 272 C-19.84969637 270.93678162 -19.84969637 270.93678162 -22 270 C-26.79420619 266.74985226 -30.97375187 263.14466719 -35 259 C-35.66 258.67 -36.32 258.34 -37 258 C-37 257.34 -37 256.68 -37 256 C-37.66 256 -38.32 256 -39 256 C-39 255.34 -39 254.68 -39 254 C-39.66 253.814375 -40.32 253.62875 -41 253.4375 C-45.26905268 251.39191226 -48.74163706 248.42815357 -52 245 C-52 244.34 -52 243.68 -52 243 C-53.32 242.34 -54.64 241.68 -56 241 C-56 240.34 -56 239.68 -56 239 C-46.20911238 234.3067593 -36.4184841 229.64452564 -26.4296875 225.38452148 C-23.28974763 224.03780803 -20.20645388 222.62220665 -17.16015625 221.078125 C-11.73161968 218.32940752 -6.15994649 215.90641371 -0.59765625 213.44335938 C3.62916197 211.55860349 7.80373646 209.6168352 11.9296875 207.51953125 C17.27282559 204.81872479 22.74256263 202.46773318 28.25 200.125 C35.95947543 196.81477596 43.49392751 193.34190403 50.95703125 189.5078125 C53.89017938 188.05441689 56.83987605 186.78627494 59.875 185.5625 C65.43084754 183.31793759 70.72635296 180.68202026 76.05126953 177.94604492 C81.09085149 175.38011949 86.20238775 173.26452942 91.546875 171.3984375 C97.68869896 167.89720664 99.4872246 160.5418863 101.75 154.25 C105.67211282 143.63419785 109.93478626 133.13042747 115 123 C106.92555886 126.14467144 106.92555886 126.14467144 99.25 130.125 C96.31257012 131.81967109 93.47081439 132.96434519 90.28515625 134.09375 C87.51330865 135.19301264 84.90508633 136.5180328 82.25 137.875 C77.26456033 140.41782476 72.21772533 142.60415569 67.03125 144.69921875 C62.76656832 146.52929478 58.68648198 148.67939067 54.59375 150.86328125 C52 152 52 152 48 152 C48 152.66 48 153.32 48 154 C47.20335937 154.32613281 46.40671875 154.65226563 45.5859375 154.98828125 C38.93278429 157.72612879 38.93278429 157.72612879 32.4375 160.8125 C30 162 30 162 27 162 C27 162.66 27 163.32 27 164 C26.26394531 164.25394531 25.52789062 164.50789062 24.76953125 164.76953125 C23.79371094 165.11371094 22.81789062 165.45789063 21.8125 165.8125 C20.84957031 166.14894531 19.88664063 166.48539063 18.89453125 166.83203125 C16.04507232 167.98181292 13.60081266 169.37504404 11 171 C8.01642002 172.34971475 6.29665696 173 3 173 C3 173.66 3 174.32 3 175 C2.22914063 175.26554688 1.45828125 175.53109375 0.6640625 175.8046875 C-0.33882813 176.15789062 -1.34171875 176.51109375 -2.375 176.875 C-3.87160156 177.39707031 -3.87160156 177.39707031 -5.3984375 177.9296875 C-8.10442118 178.84782502 -8.10442118 178.84782502 -10 181 C-11.99974877 181.84350953 -14.02517689 182.62679011 -16.0625 183.375 C-23.5437817 186.1886838 -30.68717952 189.31946162 -37.8125 192.9375 C-53.79389313 201 -53.79389313 201 -58 201 C-58 201.66 -58 202.32 -58 203 C-58.94101563 203.31453125 -59.88203125 203.6290625 -60.8515625 203.953125 C-62.09679687 204.38109375 -63.34203125 204.8090625 -64.625 205.25 C-66.46964844 205.87648437 -66.46964844 205.87648437 -68.3515625 206.515625 C-71.97626232 207.99034227 -74.75887313 209.83097001 -78 212 C-80.72132296 213.29474468 -83.5080587 214.39911259 -86.3125 215.5 C-87.82327072 216.10719274 -89.33369103 216.71525809 -90.84375 217.32421875 C-91.56175781 217.61216309 -92.27976562 217.90010742 -93.01953125 218.19677734 C-97.4403151 219.98972346 -101.87278416 221.83346228 -106.05859375 224.12890625 C-108.67071329 225.30094379 -110.30075607 224.74978998 -113 224 C-113 220 -113 220 -111 217 C-109.3523962 216.28752268 -107.68236471 215.62599617 -106 215 C-104.6696875 214.195625 -104.6696875 214.195625 -103.3125 213.375 C-101 212 -101 212 -99 212 C-99 211.01 -99 210.02 -99 209 C-97.23932917 208.18738269 -95.47865826 207.37476555 -93.71798706 206.56214905 C-92.13573083 205.83187615 -90.55347582 205.10160059 -88.97122192 204.37132263 C-84.56515275 202.33773788 -80.15906139 200.30420123 -75.75292969 198.27075195 C-67.83744304 194.6176677 -59.92203726 190.96441115 -52.0078125 187.30859375 C-50.84878418 186.77331055 -49.68975586 186.23802734 -48.49560547 185.68652344 C-46.40856753 184.72259889 -44.32164398 183.75842663 -42.23486328 182.79394531 C-37.66788738 180.68490408 -33.09655261 178.58639213 -28.515625 176.5078125 C-22.83117596 173.92804792 -17.16521074 171.30918105 -11.5 168.6875 C-1.63552324 164.12750603 8.24317338 159.5995643 18.12957764 155.08734131 C30.49971673 149.44144157 42.85274324 143.76209097 55.18041992 138.02392578 C65.3363642 133.29992494 75.50998238 128.61480863 85.6875 123.9375 C86.48758484 123.56956329 87.28766968 123.20162659 88.11199951 122.82254028 C92.47259333 120.81749954 96.83484166 118.81617217 101.20062256 116.82244873 C102.80356605 116.08978486 104.40505972 115.35395094 106.00634766 114.61767578 C111.76615246 112 111.76615246 112 114 112 C114 111.34 114 110.68 114 110 C113.41347656 109.73316406 112.82695312 109.46632813 112.22265625 109.19140625 C109.95581619 107.97631623 108.33216818 106.66848194 106.4375 104.9375 C103.31380122 102.14170331 100.13263493 99.45123227 96.875 96.8125 C91.90892423 92.7749841 87.04803257 88.62844188 82.20166016 84.44921875 C78.59529308 81.34645684 74.948457 78.30574274 71.25 75.3125 C66.849933 71.74348518 62.65097221 67.99938541 58.46484375 64.18359375 C55.24522915 61.33135198 51.87827935 58.69164499 48.5 56.03125 C45.91811758 53.93347053 43.45717227 51.74216969 41 49.5 C37.85099313 46.62927746 34.66123106 43.8847041 31.3125 41.25 C26.99577988 37.84669244 22.8310517 34.29726505 18.6875 30.6875 C18.05336182 30.13578125 17.41922363 29.5840625 16.76586914 29.015625 C15.4817253 27.89832707 14.197627 26.7809768 12.91357422 25.66357422 C9.86763175 23.01557064 6.81547745 20.37536902 3.75 17.75 C3.21334717 17.28424561 2.67669434 16.81849121 2.1237793 16.33862305 C-0.26092097 14.30453484 -1.99093313 13.00302229 -5 12 C-8.00101998 13.06649463 -8.00101998 13.06649463 -11.3125 14.7109375 C-11.92262939 14.99852936 -12.53275879 15.28612122 -13.16137695 15.58242798 C-15.11209208 16.50411531 -17.05608158 17.43907487 -19 18.375 C-20.9451589 19.30094564 -22.8915917 20.22414754 -24.83862305 21.14614868 C-26.60687652 21.9851818 -28.37188043 22.83105309 -30.13671875 23.67724609 C-33 25 -33 25 -36 26 C-34.76661202 29.70016395 -33.36179556 30.54703034 -30.3125 32.9375 C-25.84284802 36.50512649 -21.4553149 40.1395615 -17.125 43.875 C-15.93373581 44.89990473 -14.74232896 45.92464365 -13.55078125 46.94921875 C-12.96119629 47.45630371 -12.37161133 47.96338867 -11.76416016 48.48583984 C-5.09267077 54.2119092 1.61508315 59.89179274 8.4375 65.4375 C13.47972014 69.53662447 18.41079406 73.75648241 23.31811523 78.01538086 C25.81145851 80.17045097 28.25388434 82.16925623 31 84 C31 84.66 31 85.32 31 86 C31.680625 86.185625 32.36125 86.37125 33.0625 86.5625 C36.51306301 88.25107339 38.52479575 90.35868698 41.15234375 93.11328125 C43.93268551 95.95240402 46.95368396 98.45104168 50 101 C49 104 49 104 46.69360352 105.40698242 C45.68225342 105.88498291 44.67090332 106.3629834 43.62890625 106.85546875 C42.50677734 107.39115479 41.38464844 107.92684082 40.22851562 108.47875977 C39.00670649 109.04876032 37.78469661 109.61833074 36.5625 110.1875 C35.31285523 110.77793879 34.06350772 111.3690071 32.81445312 111.96069336 C24.13192178 116.06015416 15.39407549 120.02734775 6.59277344 123.86474609 C1.54369174 126.07550221 -3.49184774 128.31694573 -8.52880859 130.55514526 C-10.34031545 131.35959732 -12.15257256 132.16235923 -13.96484375 132.96508789 C-15.07730469 133.45871826 -16.18976563 133.95234863 -17.3359375 134.4609375 C-18.82939697 135.12295166 -18.82939697 135.12295166 -20.35302734 135.79833984 C-21.96640251 136.53077229 -23.56250511 137.30541915 -25.11962891 138.15087891 C-28.03674776 139.46816524 -30.85225196 139.12106723 -34 139 C-34 138.34 -34 137.68 -34 137 C-34.99 136.67 -35.98 136.34 -37 136 C-36.6919629 133.12498705 -36.10569236 132.09918821 -33.96875 130.09375 C-30.38308201 127.56491047 -26.72283953 125.93048992 -22.6875 124.25 C-21.94693359 123.93417969 -21.20636719 123.61835938 -20.44335938 123.29296875 C-18.63187828 122.52162841 -16.81633859 121.75983142 -15 121 C-15 120.34 -15 119.68 -15 119 C-16.46690559 117.6672812 -18.00322501 116.41086131 -19.5625 115.1875 C-24.25948925 111.4311145 -28.84383578 107.57962974 -33.375 103.625 C-38.14403046 99.47288915 -42.92395886 95.3358019 -47.75 91.25 C-48.27843506 90.80261475 -48.80687012 90.35522949 -49.35131836 89.89428711 C-52.84499539 86.94776682 -56.38311709 84.0607461 -59.9375 81.1875 C-61.62858244 79.79600903 -63.31648671 78.40063912 -65 77 C-65.67675781 76.44570312 -66.35351562 75.89140625 -67.05078125 75.3203125 C-69.57311831 73.08210076 -70.94779108 71.74832784 -71.1875 68.3125 C-69.82159898 64.50235505 -68.17514151 60.8939247 -66.44921875 57.234375 C-65.14193153 54.31676364 -63.96879997 51.37984599 -62.86547852 48.37963867 C-62.3653567 47.02569861 -61.85111961 45.67690134 -61.32397461 44.33325195 C-59.94630239 40.78941797 -58.82469494 37.37703303 -58.046875 33.65234375 C-56.51750846 27.45277331 -54.69516452 22.83046989 -49.25292969 19.13427734 C-42.2508547 15.31448711 -34.92223311 12.35419431 -27.51318359 9.43261719 C-21.77661869 7.09334249 -16.28165158 4.27922898 -10.77441406 1.44921875 C-4.10968294 -1.81388286 -4.10968294 -1.81388286 0 0 Z " fill="#090706" transform="translate(202,27)"/>
<path d="M0 0 C1.84157709 1.19876244 3.47456893 2.42696593 5.12060547 3.88061523 C5.71268799 4.39922119 6.30477051 4.91782715 6.91479492 5.45214844 C7.54216553 6.00862061 8.16953613 6.56509277 8.81591797 7.13842773 C10.16068545 8.31713793 11.50574436 9.4955157 12.85107422 10.67358398 C13.87225342 11.57101318 13.87225342 11.57101318 14.9140625 12.48657227 C18.01118724 15.20168596 21.12851038 17.89286955 24.25341797 20.57592773 C24.83438232 21.07511719 25.41534668 21.57430664 26.01391602 22.08862305 C29.33225739 24.92684589 32.69656233 27.68733 36.12841797 30.38842773 C40.69119557 33.98786931 44.93729703 37.87856952 49.21044922 41.81420898 C52.56833179 44.82621524 56.06785632 47.61715286 59.61279297 50.40405273 C62.43820417 52.66058919 65.13419256 55.04120601 67.83935547 57.43920898 C70.18615963 59.47630479 72.58830083 61.43282404 75.00341797 63.38842773 C80.22625534 67.63334133 85.30501086 72.02850547 90.37695312 76.4519043 C95.01013243 80.48271112 99.72088968 84.39308396 104.49560547 88.25561523 C107.52733229 90.74492448 110.46414376 93.33002553 113.38232422 95.95092773 C114.92223398 97.35160817 114.92223398 97.35160817 116.94091797 98.26342773 C116.94091797 98.92342773 116.94091797 99.58342773 116.94091797 100.26342773 C115.2273763 101.05900065 113.51383464 101.85457357 111.80029297 102.65014648 C110.68106445 103.1697998 109.56183594 103.68945312 108.40869141 104.22485352 C105.89636829 105.39129523 103.38399227 106.55762291 100.87158203 107.72387695 C94.47717384 110.69225948 88.08328878 113.66175364 81.69091797 116.63452148 C69.03654286 122.51796592 56.36985171 128.37272258 43.67919922 134.17749023 C38.42350931 136.58226593 33.17186681 138.9957443 27.92138672 141.41186523 C-0.75649829 154.60672719 -0.75649829 154.60672719 -13.79248047 160.44458008 C-20.13833914 163.28922738 -26.44092741 166.22275244 -32.73681641 169.17602539 C-60.3890624 182.12420702 -88.09651875 194.99702191 -116.05908203 207.26342773 C-115.48801318 203.05489857 -114.50217807 199.52826231 -112.80908203 195.63842773 C-112.35919922 194.59041992 -111.90931641 193.54241211 -111.44580078 192.46264648 C-110.98818359 191.4069043 -110.53056641 190.35116211 -110.05908203 189.26342773 C-109.24274447 187.32754151 -108.43020369 185.39004958 -107.62158203 183.45092773 C-107.21294922 182.47639648 -106.80431641 181.50186523 -106.38330078 180.49780273 C-105.40118767 178.0990132 -104.44753155 175.69739106 -103.51611328 173.27905273 C-103.25306396 172.60205322 -102.99001465 171.92505371 -102.71899414 171.22753906 C-102.20655676 169.90444648 -101.70055511 168.57883817 -101.2019043 167.25048828 C-98.64813306 160.68027575 -95.8442614 158.96069412 -89.46142578 156.11108398 C-88.80352051 155.81483627 -88.14561523 155.51858856 -87.46777344 155.21336365 C-85.31341883 154.24471381 -83.15503274 153.28541077 -80.99658203 152.32592773 C-78.74404011 151.3157039 -76.49256937 150.30311756 -74.24110413 149.29049683 C-72.71976969 148.6065211 -71.19806928 147.92335881 -69.67601013 147.24099731 C-62.75678582 144.13733631 -55.87409326 140.95850823 -48.99658203 137.76342773 C-41.5163582 134.29642859 -34.01660335 130.89430588 -26.45043945 127.61938477 C-21.11620666 125.30552185 -15.8476111 122.86259598 -10.58642578 120.38842773 C-4.69174048 117.6163841 1.21946171 114.87987946 7.12841797 112.13842773 C8.93315093 111.30069998 10.73788376 110.46297194 12.54260254 109.62521362 C17.66708465 107.24649982 22.79191713 104.86854143 27.91688538 102.49087524 C30.50924862 101.28812117 33.10150981 100.08514724 35.6937561 98.88214111 C37.53930447 98.02577683 39.38500734 97.16974615 41.23071289 96.3137207 C42.34422119 95.79696777 43.45772949 95.28021484 44.60498047 94.74780273 C45.58934082 94.29115234 46.57370117 93.83450195 47.58789062 93.36401367 C49.04726223 92.68141903 50.4998903 91.98394157 51.94091797 91.26342773 C50.36535663 87.29227605 47.77498448 85.02389607 44.62841797 82.20092773 C43.21109375 80.91508789 43.21109375 80.91508789 41.76513672 79.60327148 C39.04203707 77.22141648 39.04203707 77.22141648 36.08544922 75.57983398 C35.02390625 74.92821289 35.02390625 74.92821289 33.94091797 74.26342773 C33.94091797 73.60342773 33.94091797 72.94342773 33.94091797 72.26342773 C33.37501953 72.0172168 32.80912109 71.77100586 32.22607422 71.51733398 C29.54843539 70.0480655 27.61048185 68.28590338 25.37841797 66.20092773 C20.99370453 62.18160708 16.48089982 58.38818032 11.85888672 54.64624023 C8.68674626 52.05587118 5.56041589 49.41667763 2.44091797 46.76342773 C-1.48296706 43.42717767 -5.43169893 40.13071434 -9.43408203 36.88842773 C-14.70273376 32.60522338 -19.82663919 28.16522415 -24.93359375 23.69165039 C-27.90075665 21.09922072 -30.85286828 18.56161604 -34.05908203 16.26342773 C-33.05908203 13.26342773 -33.05908203 13.26342773 -31.00439453 12.19311523 C-30.07369141 11.84506836 -29.14298828 11.49702148 -28.18408203 11.13842773 C-24.07799287 9.54051593 -20.12083108 7.83505929 -16.17626953 5.86889648 C-15.33177246 5.45075684 -14.48727539 5.03261719 -13.6171875 4.60180664 C-11.92530178 3.75796289 -10.23924638 2.90231662 -8.55957031 2.03442383 C-7.77565918 1.64722168 -6.99174805 1.26001953 -6.18408203 0.86108398 C-5.13607422 0.32753296 -5.13607422 0.32753296 -4.06689453 -0.21679688 C-2.05908203 -0.73657227 -2.05908203 -0.73657227 0 0 Z " fill="#F8C009" transform="translate(199.05908203125,38.736572265625)"/>
<path d="M0 0 C0.99 0.495 0.99 0.495 2 1 C1.01 2.65 0.02 4.3 -1 6 C-0.01 6.495 -0.01 6.495 1 7 C1 7.66 1 8.32 1 9 C2.65 9 4.3 9 6 9 C3.28786126 11.15123226 0.67162923 12.74879113 -2.48046875 14.171875 C-3.83192993 14.78663696 -3.83192993 14.78663696 -5.21069336 15.41381836 C-6.68421265 16.07522827 -6.68421265 16.07522827 -8.1875 16.75 C-9.21818604 17.21736572 -10.24887207 17.68473145 -11.31079102 18.16625977 C-13.60150841 19.20471608 -15.89314722 20.24114149 -18.18554688 21.27587891 C-22.33087849 23.14767977 -26.47027952 25.03242681 -30.609375 26.91796875 C-45.49832205 33.69820465 -45.49832205 33.69820465 -51.55810547 36.44091797 C-53.67365609 37.39920328 -55.78763351 38.36098211 -57.89892578 39.32861328 C-63.77738317 42 -63.77738317 42 -66 42 C-66.26502319 42.80920898 -66.26502319 42.80920898 -66.53540039 43.63476562 C-68.40358574 49.29467982 -70.37982282 54.90640306 -72.4375 60.5 C-72.72431641 61.29019531 -73.01113281 62.08039063 -73.30664062 62.89453125 C-75.06879944 67.69042895 -77.01704557 72.35486693 -79.12329102 77.00927734 C-80.141457 79.32120311 -80.98578139 81.65521139 -81.75 84.0625 C-82.16666667 85.375 -82.58333333 86.6875 -83 88 C-82.24323975 87.63648438 -82.24323975 87.63648438 -81.47119141 87.265625 C-79.19102216 86.17307673 -76.90806831 85.08647624 -74.625 84 C-73.8309375 83.6184375 -73.036875 83.236875 -72.21875 82.84375 C-71.45820312 82.4828125 -70.69765625 82.121875 -69.9140625 81.75 C-68.8614624 81.24726563 -68.8614624 81.24726563 -67.78759766 80.734375 C-66 80 -66 80 -64 80 C-64 80.66 -64 81.32 -64 82 C-65.609375 83.2890625 -65.609375 83.2890625 -67.75 84.625 C-68.44609375 85.07101563 -69.1421875 85.51703125 -69.859375 85.9765625 C-72 87 -72 87 -76 87 C-76.66 88.98 -77.32 90.96 -78 93 C-77.01 93.99 -76.02 94.98 -75 96 C-76.28913487 96.67154933 -77.58140204 97.33708859 -78.875 98 C-79.95394531 98.556875 -79.95394531 98.556875 -81.0546875 99.125 C-83 100 -83 100 -85 100 C-82.72190654 103.18933085 -80.46474064 105.49652058 -77.25 107.6875 C-75.64125 108.8321875 -75.64125 108.8321875 -74 110 C-74 110.66 -74 111.32 -74 112 C-72.88818359 112.37125 -72.88818359 112.37125 -71.75390625 112.75 C-68.73731922 114.11923099 -67.17349343 115.58174865 -64.9375 118 C-62.43803588 120.69249204 -60.39407136 122.54863764 -57 124 C-57 124.66 -57 125.32 -57 126 C-56.34 126 -55.68 126 -55 126 C-54.67 126.66 -54.34 127.32 -54 128 C-53.01 128.33 -52.02 128.66 -51 129 C-49.29671681 130.6292274 -47.63520557 132.30245521 -46 134 C-37.74444337 141.80611372 -29.25378387 149.2727986 -20.18359375 156.12890625 C-19.46300781 156.74636719 -18.74242187 157.36382812 -18 158 C-18 158.66 -18 159.32 -18 160 C-17.45859375 160.2371875 -16.9171875 160.474375 -16.359375 160.71875 C-13.36749863 162.34347757 -10.88840601 164.3501877 -8.25 166.5 C-6.77273437 167.69109375 -6.77273437 167.69109375 -5.265625 168.90625 C-4.51796875 169.5971875 -3.7703125 170.288125 -3 171 C-3 171.66 -3 172.32 -3 173 C-1.68 173.33 -0.36 173.66 1 174 C1 174.66 1 175.32 1 176 C1.61875 176.061875 2.2375 176.12375 2.875 176.1875 C3.57625 176.455625 4.2775 176.72375 5 177 C5.68132451 178.66072849 6.34742127 180.327767 7 182 C8.78228936 183.14209817 8.78228936 183.14209817 11 184 C14.25 186 14.25 186 17 188 C17 188.66 17 189.32 17 190 C17.55945313 190.23332031 18.11890625 190.46664062 18.6953125 190.70703125 C22.50253224 192.84294605 25.30898339 196.11704752 28.3671875 199.19921875 C30.87476365 201.28704697 30.87476365 201.28704697 33.953125 200.94921875 C37.15498387 199.95171656 39.91646003 198.70236481 42.875 197.125 C46.29232963 195.3530513 49.622031 193.66558186 53.25 192.375 C56.79688098 191.07447697 60.00955886 189.53874061 63.3359375 187.76953125 C65 187 65 187 67 187 C67 186.01 67 185.02 67 184 C66.31808594 183.79117188 65.63617188 183.58234375 64.93359375 183.3671875 C61.03764718 181.55150002 58.23883977 178.98544466 55.0625 176.125 C51.08527641 172.56248441 47.13041997 169.04889082 42.87109375 165.82421875 C33.32173151 158.47492576 33.32173151 158.47492576 32.3515625 154.02734375 C32.60355402 151.46782984 33.04181162 149.37967664 34 147 C33.2575 146.5875 32.515 146.175 31.75 145.75 C28.32989729 143.573571 25.53303586 141.70454325 24.2890625 137.7265625 C22.48804607 133.91713986 19.78975102 131.87872397 16.5625 129.25 C15.9422998 128.73211914 15.32209961 128.21423828 14.68310547 127.68066406 C12.7969988 126.11011662 10.89991618 124.55379777 9 123 C7.87604143 122.07323269 6.75232815 121.14616778 5.62890625 120.21875 C3.09407658 118.13550897 0.55185888 116.06231861 -2 114 C-1 111 -1 111 1.60449219 109.48193359 C2.74047852 108.95937988 3.87646484 108.43682617 5.046875 107.8984375 C5.65509094 107.61650543 6.26330688 107.33457336 6.88995361 107.0440979 C8.17891732 106.44924711 9.47023665 105.85947836 10.76367188 105.27441406 C12.73361087 104.38242104 14.69525012 103.47395065 16.65625 102.5625 C27.92423315 97.38521642 27.92423315 97.38521642 32 97 C34.53515625 98.765625 34.53515625 98.765625 37.0625 101.25 C43.10200278 107.35248558 43.10200278 107.35248558 51 110 C50.67 109.01 50.34 108.02 50 107 C51.175625 107.0928125 51.175625 107.0928125 52.375 107.1875 C53.674375 107.0946875 53.674375 107.0946875 55 107 C55.99 105.515 55.99 105.515 57 104 C57.66644531 104.61746094 58.33289063 105.23492187 59.01953125 105.87109375 C64.53470371 110.9388816 70.13912151 115.80055501 75.96875 120.5078125 C81.47468615 125.03460021 86.82102755 129.74739116 92.19335938 134.43115234 C95.11602373 136.96913088 98.05713117 139.48550209 101 142 C97.32317515 152.13066087 93.37032962 162.14098273 89.3125 172.125 C88.83707764 173.29844971 88.36165527 174.47189941 87.87182617 175.6809082 C87.41525635 176.79941162 86.95868652 177.91791504 86.48828125 179.0703125 C86.08134033 180.06820801 85.67439941 181.06610352 85.25512695 182.09423828 C81.08302741 191.75312346 75.99033637 194.78461598 66.625 198.8125 C65.84205566 199.15506836 65.05911133 199.49763672 64.25244141 199.85058594 C61.83739975 200.90610263 59.41911461 201.95385636 57 203 C54.8088247 203.95073605 52.61813595 204.90256182 50.42822266 205.85620117 C49.07454475 206.44547761 47.72006829 207.0329235 46.36474609 207.6184082 C42.91406661 209.11902804 39.56203744 210.71565511 36.25 212.5 C33 214 33 214 31.1171875 213.84375 C28.23526904 212.69523637 26.24969827 210.99391575 23.875 209 C22.90304688 208.1853125 21.93109375 207.370625 20.9296875 206.53125 C17.41078266 203.49091622 13.9640119 200.37872806 10.52734375 197.24609375 C7.93037607 194.93812402 5.26595987 192.74444137 2.5625 190.5625 C-2.20996203 186.70291397 -6.73109109 182.62800009 -11.24609375 178.47265625 C-14.83207284 175.25290481 -18.56701492 172.24094824 -22.31640625 169.21484375 C-24.94708557 167.04367173 -27.47942424 164.79758643 -30 162.5 C-33.41739372 159.38541332 -36.9052235 156.4081338 -40.5 153.5 C-44.96420457 149.88850866 -49.23002114 146.11339306 -53.47265625 142.24609375 C-56.06962393 139.93812402 -58.73404013 137.74444137 -61.4375 135.5625 C-66.20996203 131.70291397 -70.73109109 127.62800009 -75.24609375 123.47265625 C-78.82047426 120.26331886 -82.54204741 117.26001998 -86.28125 114.24609375 C-89.96738515 111.20079532 -93.4885839 107.98972108 -97.00390625 104.75 C-98.88450675 102.95218021 -98.88450675 102.95218021 -101 102 C-100.40532829 98.64643546 -99.57610618 95.64094891 -98.29296875 92.48828125 C-97.95330078 91.64716797 -97.61363281 90.80605469 -97.26367188 89.93945312 C-96.7309668 88.63911133 -96.7309668 88.63911133 -96.1875 87.3125 C-95.84396484 86.46494141 -95.50042969 85.61738281 -95.14648438 84.74414062 C-94.44988805 83.02552117 -93.75179713 81.30750678 -93.05224609 79.59008789 C-90.81829132 74.09124191 -88.62329074 68.57673799 -86.4375 63.05859375 C-84.05642898 57.06062408 -81.67891528 51.07657123 -78.95703125 45.22265625 C-77.98248346 43.08379975 -77.98248346 43.08379975 -77.44433594 41.09790039 C-76.24833176 37.24898177 -75.53706312 35.4016627 -72.2265625 32.92578125 C-71.03804687 32.39339844 -69.84953125 31.86101562 -68.625 31.3125 C-67.95090088 31.00127197 -67.27680176 30.69004395 -66.58227539 30.36938477 C-64.06675535 29.21810394 -61.53343563 28.1113017 -59 27 C-56.67220493 25.95267888 -54.34545652 24.90302959 -52.01953125 23.8515625 C-46.96359642 21.56974745 -41.90034335 19.30495631 -36.83203125 17.05078125 C-31.74278023 14.78405881 -26.66818612 12.49239492 -21.625 10.125 C-20.53058594 9.61195313 -19.43617188 9.09890625 -18.30859375 8.5703125 C-15.81643065 7.38749129 -13.33081411 6.19362366 -10.84765625 4.9921875 C-10.15269043 4.65944824 -9.45772461 4.32670898 -8.74169922 3.98388672 C-7.40542201 3.34385853 -6.07221066 2.69737589 -4.74267578 2.04345703 C-3.18914909 1.30201072 -1.59680888 0.64295351 0 0 Z " fill="#0A0807" transform="translate(167,157)"/>
<path d="M0 0 C3.99114585 2.23679603 7.42493166 4.89539553 10.875 7.875 C11.42655762 8.34607178 11.97811523 8.81714355 12.54638672 9.30249023 C15.73724709 12.03363529 18.90851729 14.78721267 22.078125 17.54296875 C23.08963623 18.42202881 23.08963623 18.42202881 24.12158203 19.31884766 C25.43686297 20.46358766 26.7503996 21.61033554 28.06201172 22.75927734 C28.66287598 23.28344238 29.26374023 23.80760742 29.8828125 24.34765625 C30.41277832 24.81179932 30.94274414 25.27594238 31.48876953 25.75415039 C33.19207206 27.20118242 33.19207206 27.20118242 36 29 C35.39722433 33.61894378 34.14849992 37.5115256 32.375 41.8125 C32.11211182 42.45630615 31.84922363 43.1001123 31.57836914 43.76342773 C30.14277386 47.27092937 28.68031273 50.76724945 27.22265625 54.265625 C26.62723459 55.69776307 26.03218272 57.13005494 25.4375 58.5625 C25.14238525 59.27180664 24.84727051 59.98111328 24.54321289 60.71191406 C22.65657012 65.28680012 20.94019627 69.8891144 19.3125 74.5625 C17.79745336 78.90397792 16.19181875 83.01944787 13.9921875 87.05859375 C12.83284632 89.17526622 12.83284632 89.17526622 12.01953125 92.39453125 C9.7711696 97.64140238 4.77325303 99.10458869 -0.1875 101.25 C-1.71117187 101.94270996 -1.71117187 101.94270996 -3.265625 102.64941406 C-5.41281583 103.62355371 -7.56448658 104.58787075 -9.72021484 105.54296875 C-13.97778314 107.43437619 -18.20605133 109.38678494 -22.4362793 111.33837891 C-25.45690236 112.7301426 -28.48158394 114.11266034 -31.5078125 115.4921875 C-44.49977584 121.4024993 -44.49977584 121.4024993 -57.3125 127.6875 C-61.21971934 129.66681506 -65.18599811 131.30913758 -69.26953125 132.88671875 C-73.69752973 134.69212585 -77.99647258 136.77190439 -82.3125 138.828125 C-85 140 -85 140 -87 140 C-87 140.66 -87 141.32 -87 142 C-86.44828125 142.25136719 -85.8965625 142.50273437 -85.328125 142.76171875 C-82.58547929 144.22047494 -80.21785447 145.9255294 -77.75 147.8125 C-76.41195312 148.81216797 -76.41195312 148.81216797 -75.046875 149.83203125 C-73 152 -73 152 -72.703125 154.76171875 C-72.80109375 155.50035156 -72.8990625 156.23898437 -73 157 C-74.65 157 -76.3 157 -78 157 C-78 157.66 -78 158.32 -78 159 C-80.078125 159.38671875 -80.078125 159.38671875 -83 159 C-86.1206039 156.68269123 -88.79905516 153.8097012 -91.4765625 151.00195312 C-93.26750377 149.30055892 -94.7593786 148.04687332 -97 147 C-100.35055603 147.17638774 -103.01018159 148.552247 -106 150 C-107.46735596 150.64424927 -107.46735596 150.64424927 -108.96435547 151.30151367 C-112.18367191 152.72340741 -115.37396259 154.1979783 -118.5625 155.6875 C-119.66658203 156.19861328 -120.77066406 156.70972656 -121.90820312 157.23632812 C-124.60747498 158.4866402 -127.30464455 159.74127316 -130 161 C-128.76661202 164.70016395 -127.36179556 165.54703034 -124.3125 167.9375 C-123.33152344 168.72382813 -122.35054688 169.51015625 -121.33984375 170.3203125 C-120.80601074 170.74731445 -120.27217773 171.17431641 -119.72216797 171.61425781 C-116.57667917 174.14527488 -113.46830403 176.71807741 -110.375 179.3125 C-109.45134644 180.06744751 -109.45134644 180.06744751 -108.5090332 180.83764648 C-104.11223978 184.54421323 -104.11223978 184.54421323 -103.50634766 187.00463867 C-102.42583773 191.262598 -97.4831007 193.67793287 -94 196 C-94.4979837 199.73487777 -94.87491756 201.81237635 -97 205 C-97.50789063 204.54109375 -98.01578125 204.0821875 -98.5390625 203.609375 C-103.26646349 199.3903703 -103.26646349 199.3903703 -108.4375 195.75 C-111 194 -111 194 -112 191 C-113.84969637 189.93678162 -113.84969637 189.93678162 -116 189 C-120.79420619 185.74985226 -124.97375187 182.14466719 -129 178 C-129.66 177.67 -130.32 177.34 -131 177 C-131 176.34 -131 175.68 -131 175 C-131.66 175 -132.32 175 -133 175 C-133 174.34 -133 173.68 -133 173 C-133.66 172.814375 -134.32 172.62875 -135 172.4375 C-139.26905268 170.39191226 -142.74163706 167.42815357 -146 164 C-146 163.34 -146 162.68 -146 162 C-147.32 161.34 -148.64 160.68 -150 160 C-150 159.34 -150 158.68 -150 158 C-140.20911238 153.3067593 -130.4184841 148.64452564 -120.4296875 144.38452148 C-117.28974763 143.03780803 -114.20645388 141.62220665 -111.16015625 140.078125 C-105.73161968 137.32940752 -100.15994649 134.90641371 -94.59765625 132.44335938 C-90.37083803 130.55860349 -86.19626354 128.6168352 -82.0703125 126.51953125 C-76.72717441 123.81872479 -71.25743737 121.46773318 -65.75 119.125 C-58.04052457 115.81477596 -50.50607249 112.34190403 -43.04296875 108.5078125 C-40.10982062 107.05441689 -37.16012395 105.78627494 -34.125 104.5625 C-28.56915246 102.31793759 -23.27364704 99.68202026 -17.94873047 96.94604492 C-12.90914851 94.38011949 -7.79761225 92.26452942 -2.453125 90.3984375 C3.68869896 86.89720664 5.4872246 79.5418863 7.75 73.25 C11.67211282 62.63419785 15.93478626 52.13042747 21 42 C12.92555886 45.14467144 12.92555886 45.14467144 5.25 49.125 C2.31257012 50.81967109 -0.52918561 51.96434519 -3.71484375 53.09375 C-6.48669135 54.19301264 -9.09491367 55.5180328 -11.75 56.875 C-16.73543967 59.41782476 -21.78227467 61.60415569 -26.96875 63.69921875 C-31.23343168 65.52929478 -35.31351802 67.67939067 -39.40625 69.86328125 C-42 71 -42 71 -46 71 C-46 71.66 -46 72.32 -46 73 C-46.79664063 73.32613281 -47.59328125 73.65226562 -48.4140625 73.98828125 C-55.06721571 76.72612879 -55.06721571 76.72612879 -61.5625 79.8125 C-64 81 -64 81 -67 81 C-67 81.66 -67 82.32 -67 83 C-67.73605469 83.25394531 -68.47210938 83.50789063 -69.23046875 83.76953125 C-70.20628906 84.11371094 -71.18210938 84.45789063 -72.1875 84.8125 C-73.15042969 85.14894531 -74.11335937 85.48539062 -75.10546875 85.83203125 C-77.95492768 86.98181292 -80.39918734 88.37504404 -83 90 C-85.98357998 91.34971475 -87.70334304 92 -91 92 C-91 92.66 -91 93.32 -91 94 C-92.15628906 94.39832031 -92.15628906 94.39832031 -93.3359375 94.8046875 C-94.33882813 95.15789062 -95.34171875 95.51109375 -96.375 95.875 C-97.37273437 96.22304687 -98.37046875 96.57109375 -99.3984375 96.9296875 C-102.10442118 97.84782502 -102.10442118 97.84782502 -104 100 C-105.99974877 100.84350953 -108.02517689 101.62679011 -110.0625 102.375 C-117.5437817 105.1886838 -124.68717952 108.31946162 -131.8125 111.9375 C-147.79389313 120 -147.79389313 120 -152 120 C-152 120.66 -152 121.32 -152 122 C-152.94101563 122.31453125 -153.88203125 122.6290625 -154.8515625 122.953125 C-156.09679687 123.38109375 -157.34203125 123.8090625 -158.625 124.25 C-159.85476562 124.66765625 -161.08453125 125.0853125 -162.3515625 125.515625 C-165.97626232 126.99034227 -168.75887313 128.83097001 -172 131 C-174.72132296 132.29474468 -177.5080587 133.39911259 -180.3125 134.5 C-181.82327072 135.10719274 -183.33369103 135.71525809 -184.84375 136.32421875 C-185.56175781 136.61216309 -186.27976562 136.90010742 -187.01953125 137.19677734 C-191.4403151 138.98972346 -195.87278416 140.83346228 -200.05859375 143.12890625 C-202.67071329 144.30094379 -204.30075607 143.74978998 -207 143 C-207 139 -207 139 -205 136 C-203.3523962 135.28752268 -201.68236471 134.62599617 -200 134 C-198.6696875 133.195625 -198.6696875 133.195625 -197.3125 132.375 C-195 131 -195 131 -193 131 C-193 130.01 -193 129.02 -193 128 C-191.23932917 127.18738269 -189.47865826 126.37476555 -187.71798706 125.56214905 C-186.13573083 124.83187615 -184.55347582 124.10160059 -182.97122192 123.37132263 C-178.56515275 121.33773788 -174.15906139 119.30420123 -169.75292969 117.27075195 C-161.83744304 113.6176677 -153.92203726 109.96441115 -146.0078125 106.30859375 C-144.84878418 105.77331055 -143.68975586 105.23802734 -142.49560547 104.68652344 C-140.40856753 103.72259889 -138.32164398 102.75842663 -136.23486328 101.79394531 C-131.66788738 99.68490408 -127.09655261 97.58639213 -122.515625 95.5078125 C-116.83117596 92.92804792 -111.16521074 90.30918105 -105.5 87.6875 C-95.63552324 83.12750603 -85.75682662 78.5995643 -75.87042236 74.08734131 C-63.50028327 68.44144157 -51.14725676 62.76209097 -38.81958008 57.02392578 C-28.6636358 52.29992494 -18.49001762 47.61480863 -8.3125 42.9375 C-7.51241516 42.56956329 -6.71233032 42.20162659 -5.88800049 41.82254028 C-1.52740667 39.81749954 2.83484166 37.81617217 7.20062256 35.82244873 C8.80356605 35.08978486 10.40505972 34.35395094 12.00634766 33.61767578 C17.76615246 31 17.76615246 31 20 31 C20 30.34 20 29.68 20 29 C19.4225 28.73703125 18.845 28.4740625 18.25 28.203125 C12.2310774 24.98467333 7.25403454 19.96572999 4 14 C4 13.01 4 12.02 4 11 C2.824375 10.9071875 2.824375 10.9071875 1.625 10.8125 C0.75875 10.544375 -0.1075 10.27625 -1 10 C-2.3125 7.4375 -2.3125 7.4375 -3 5 C-2.34 4.67 -1.68 4.34 -1 4 C-0.34786708 1.97536745 -0.34786708 1.97536745 0 0 Z " fill="#060504" transform="translate(296,108)"/>
<path d="M0 0 C3.49950514 0.59102754 5.28780411 1.86022066 7.875 4.25 C10.36439087 6.52028718 12.86127857 8.71778038 15.5 10.8125 C16.325 11.534375 17.15 12.25625 18 13 C18 13.66 18 14.32 18 15 C18.721875 15.2475 19.44375 15.495 20.1875 15.75 C24.99178589 17.88523817 28.33098563 21.33098563 32 25 C36.1451827 28.81286848 40.15365389 32.1183888 45 35 C46.68816933 36.64488294 48.35353315 38.31337542 50 40 C51.4344978 41.2113537 52.86991056 42.42187787 54.32421875 43.609375 C56.95934105 45.79609654 59.50947413 48.07868989 62.0703125 50.3515625 C64.00269835 52.0530462 64.00269835 52.0530462 66.2421875 53.5859375 C66.82226562 54.05257812 67.40234375 54.51921875 68 55 C68 55.66 68 56.32 68 57 C68.763125 57.28875 69.52625 57.5775 70.3125 57.875 C73 59 73 59 76 61 C76 61.66 76 62.32 76 63 C76.66 63 77.32 63 78 63 C78 63.99 78 64.98 78 66 C76.3767313 66.6708712 74.75132422 67.33657029 73.125 68 C72.22007812 68.37125 71.31515625 68.7425 70.3828125 69.125 C68 70 68 70 66 70 C66 70.66 66 71.32 66 72 C64.66195312 72.50660156 64.66195312 72.50660156 63.296875 73.0234375 C62.12640625 73.46945313 60.9559375 73.91546875 59.75 74.375 C58.58984375 74.81585938 57.4296875 75.25671875 56.234375 75.7109375 C53.12457912 76.8873419 53.12457912 76.8873419 50.765625 78.1640625 C49 79 49 79 46 79 C46 79.66 46 80.32 46 81 C42.34603593 80.38821244 40.13957441 78.8335544 37.25 76.5625 C36.45078125 75.94503906 35.6515625 75.32757813 34.828125 74.69140625 C34.22484375 74.13324219 33.6215625 73.57507813 33 73 C33 72.34 33 71.68 33 71 C32.4328125 70.73960937 31.865625 70.47921875 31.28125 70.2109375 C28.79525405 68.89131636 26.71394643 67.36127991 24.5 65.625 C23.37078125 64.74714844 23.37078125 64.74714844 22.21875 63.8515625 C19.10351223 61.25187464 16.35646047 58.37474049 13.5625 55.4375 C11.1093595 52.92650435 11.1093595 52.92650435 8.1875 51.3125 C7.465625 50.879375 6.74375 50.44625 6 50 C6 49.34 6 48.68 6 48 C5.484375 47.773125 4.96875 47.54625 4.4375 47.3125 C1.10452995 45.51782382 -2.14703671 43.50034985 -5 41 C-5 40.34 -5 39.68 -5 39 C-5.763125 38.731875 -6.52625 38.46375 -7.3125 38.1875 C-11.41758242 36.37362637 -11.41758242 36.37362637 -13 34 C-12.46560409 29.53573878 -10.78291796 25.42399015 -9.1875 21.25 C-8.91905273 20.54133789 -8.65060547 19.83267578 -8.37402344 19.10253906 C-5.88252072 12.58285829 -3.14367037 6.23218862 0 0 Z " fill="#231F1F" transform="translate(156,62)"/>
<path d="M0 0 C3.18788633 2.022543 5.9590321 4.48492784 8.78515625 6.97265625 C10.04204955 8.0661616 11.29987178 9.1586001 12.55859375 10.25 C13.17959961 10.78866699 13.80060547 11.32733398 14.44042969 11.88232422 C16.8907729 13.98290611 19.39676561 16.01068165 21.91015625 18.03515625 C26.61639828 21.85121467 31.07004917 25.89436683 35.52734375 29.99609375 C38.86087932 32.98178213 42.33365356 35.75195574 45.8515625 38.515625 C49.4135195 41.36166972 52.82403845 44.37228559 56.22265625 47.41015625 C54.02669777 54.36402477 51.3847861 61.09997763 48.65234375 67.85546875 C47.11171191 71.68600146 45.64620389 75.53494323 44.22265625 79.41015625 C39.4284415 79.41015625 38.99079855 78.68258334 35.66015625 75.47265625 C32.18480834 72.21546887 28.68055675 69.08807527 24.97265625 66.09765625 C20.04156646 62.10681663 15.22459167 57.99946289 10.42163086 53.85668945 C6.83837783 50.77347091 3.21353543 47.75514571 -0.46484375 44.78515625 C-5.14322895 40.99038992 -9.57549881 36.97565882 -14.0078125 32.8984375 C-18.45952422 28.8988037 -23.11991808 25.16566774 -27.77734375 21.41015625 C-29.78447111 19.75175759 -31.78160878 18.08225852 -33.77734375 16.41015625 C-32.77734375 13.41015625 -32.77734375 13.41015625 -30.14111328 11.89208984 C-28.99239746 11.36953613 -27.84368164 10.84698242 -26.66015625 10.30859375 C-26.04719696 10.02666168 -25.43423767 9.74472961 -24.80270386 9.45425415 C-22.84024402 8.55470631 -20.87145611 7.67003182 -18.90234375 6.78515625 C-17.58291079 6.18191293 -16.26389475 5.57775682 -14.9453125 4.97265625 C-2.35204594 -0.78056909 -2.35204594 -0.78056909 0 0 Z " fill="#F7C00A" transform="translate(198.77734375,254.58984375)"/>
<path d="M0 0 C2.23300285 1.43761909 4.15221992 3.0563827 6.12597656 4.83276367 C6.83238281 5.4644043 7.53878906 6.09604492 8.26660156 6.74682617 C8.79769531 7.22893555 9.32878906 7.71104492 9.87597656 8.20776367 C5.625363 9.62463486 3.15746031 8.40096406 -1.12402344 7.20776367 C-1.12402344 6.21776367 -1.12402344 5.22776367 -1.12402344 4.20776367 C-2.70870072 4.49203784 -4.29172914 4.78551185 -5.87402344 5.08276367 C-6.75574219 5.24518555 -7.63746094 5.40760742 -8.54589844 5.57495117 C-12.6674788 6.58661181 -15.1715943 7.88634864 -17.74902344 11.27026367 C-20.12402344 14.20776367 -20.12402344 14.20776367 -22.12402344 15.20776367 C-23.17755187 17.51742215 -24.1812144 19.85074107 -25.12402344 22.20776367 C-24.50527344 22.51713867 -23.88652344 22.82651367 -23.24902344 23.14526367 C-21.87402344 23.83276367 -20.49902344 24.52026367 -19.12402344 25.20776367 C-19.12402344 25.86776367 -19.12402344 26.52776367 -19.12402344 27.20776367 C-17.14402344 27.86776367 -15.16402344 28.52776367 -13.12402344 29.20776367 C-12.79402344 28.21776367 -12.46402344 27.22776367 -12.12402344 26.20776367 C-10.80402344 26.86776367 -9.48402344 27.52776367 -8.12402344 28.20776367 C-8.45402344 28.53776367 -8.78402344 28.86776367 -9.12402344 29.20776367 C-8.46402344 29.86776367 -7.80402344 30.52776367 -7.12402344 31.20776367 C-6.97964844 31.88838867 -6.83527344 32.56901367 -6.68652344 33.27026367 C-6.50089844 33.90963867 -6.31527344 34.54901367 -6.12402344 35.20776367 C-4.63902344 35.70276367 -4.63902344 35.70276367 -3.12402344 36.20776367 C-2.56152344 38.14526367 -2.56152344 38.14526367 -2.12402344 40.20776367 C-1.46402344 40.86776367 -0.80402344 41.52776367 -0.12402344 42.20776367 C-4.2342579 42.20776367 -6.0040736 40.05116404 -8.93652344 37.45776367 C-9.50040771 36.96985352 -10.06429199 36.48194336 -10.64526367 35.97924805 C-11.8497068 34.93660073 -13.05153209 33.89092313 -14.25097656 32.8425293 C-16.76992382 30.64403206 -19.30560178 28.46538151 -21.84350586 26.28881836 C-23.04855093 25.25505603 -24.25191267 24.21932737 -25.45336914 23.18139648 C-28.27370127 20.75210326 -31.10778063 18.390668 -34.12402344 16.20776367 C-33.12402344 13.20776367 -33.12402344 13.20776367 -31.06933594 12.13745117 C-30.13863281 11.7894043 -29.20792969 11.44135742 -28.24902344 11.08276367 C-24.14293428 9.48485187 -20.18577249 7.77939523 -16.24121094 5.81323242 C-15.39671387 5.39509277 -14.5522168 4.97695313 -13.68212891 4.54614258 C-11.99024318 3.70229883 -10.30418778 2.84665255 -8.62451172 1.97875977 C-7.84060059 1.59155762 -7.05668945 1.20435547 -6.24902344 0.80541992 C-5.55035156 0.44971924 -4.85167969 0.09401855 -4.13183594 -0.27246094 C-2.12402344 -0.79223633 -2.12402344 -0.79223633 0 0 Z " fill="#F3C015" transform="translate(199.1240234375,38.792236328125)"/>
<path d="M0 0 C1.07600031 3.2352712 0.93045298 5.01069271 -0.25 8.1875 C-0.52972656 8.96351563 -0.80945313 9.73953125 -1.09765625 10.5390625 C-1.39542969 11.35117188 -1.69320312 12.16328125 -2 13 C-2.56784459 14.68570906 -3.13059875 16.37314406 -3.6875 18.0625 C-4.125 19.375 -4.5625 20.6875 -5 22 C-5.66 22 -6.32 22 -7 22 C-6.938125 23.07314453 -6.938125 23.07314453 -6.875 24.16796875 C-7.01360313 27.30819586 -7.77103509 29.43211348 -9 32.3125 C-9.37125 33.19550781 -9.7425 34.07851562 -10.125 34.98828125 C-10.41375 35.65214844 -10.7025 36.31601563 -11 37 C-8.03 36.505 -8.03 36.505 -5 36 C-4.67 34.68 -4.34 33.36 -4 32 C-3.21625 31.855625 -2.4325 31.71125 -1.625 31.5625 C0.96421018 31.12201075 0.96421018 31.12201075 3 30 C3.66 30.33 4.32 30.66 5 31 C5 30.34 5 29.68 5 29 C7.64 28.34 10.28 27.68 13 27 C13 25.68 13 24.36 13 23 C19.30427634 21.36555799 25.52259333 20.59114197 32 20 C28.87648339 22.53141628 25.69292294 24.20912452 22.046875 25.890625 C20.87672852 26.43243408 19.70658203 26.97424316 18.50097656 27.5324707 C17.25074891 28.10519416 16.00042169 28.6777003 14.75 29.25 C13.48133721 29.83464502 12.21278276 30.41952521 10.94433594 31.00463867 C2.01222881 35.11620596 -6.95681891 39.13839317 -16 43 C-15.42893115 38.79147084 -14.44309604 35.26483458 -12.75 31.375 C-12.30140625 30.32957031 -11.8528125 29.28414062 -11.390625 28.20703125 C-10.93171875 27.14871094 -10.4728125 26.09039062 -10 25 C-6.49684544 16.72866284 -3.18370234 8.39955511 0 0 Z " fill="#E3B72B" transform="translate(99,203)"/>
<path d="M0 0 C2 2 2 2 2 6 C0.92621094 6.31453125 -0.14757812 6.6290625 -1.25390625 6.953125 C-2.69024034 7.38496401 -4.12643068 7.81728132 -5.5625 8.25 C-6.26697266 8.45496094 -6.97144531 8.65992188 -7.69726562 8.87109375 C-12.59163193 10.35970286 -16.59907972 12.40273557 -21 15 C-21.66 15 -22.32 15 -23 15 C-23 15.66 -23 16.32 -23 17 C-24.6396875 17.8971875 -24.6396875 17.8971875 -26.3125 18.8125 C-28.93483985 20.30570358 -30.9600229 21.75602519 -33 24 C-36 26 -36 26 -37.9375 25.6875 C-38.9584375 25.3471875 -38.9584375 25.3471875 -40 25 C-40.7425 24.814375 -41.485 24.62875 -42.25 24.4375 C-42.8275 24.293125 -43.405 24.14875 -44 24 C-44.33 24.99 -44.66 25.98 -45 27 C-49.95 27.495 -49.95 27.495 -55 28 C-52.43814064 25.43814064 -49.51624831 24.28869741 -46.25390625 22.83984375 C-45.57476669 22.53375183 -44.89562714 22.22765991 -44.19590759 21.91229248 C-42.74033986 21.25664869 -41.28389255 20.60295483 -39.82666016 19.95101929 C-36.05817411 18.26410978 -32.29725679 16.56046472 -28.53515625 14.859375 C-27.42553024 14.35835518 -27.42553024 14.35835518 -26.29348755 13.84721375 C-20.34645848 11.16115813 -14.41012609 8.45400498 -8.5 5.6875 C-7.73115479 5.33357178 -6.96230957 4.97964355 -6.17016602 4.61499023 C-2.42133053 3.0541957 -2.42133053 3.0541957 0 0 Z " fill="#F7BD16" transform="translate(252,128)"/>
<path d="M0 0 C-1.09989258 0.50450684 -2.19978516 1.00901367 -3.33300781 1.52880859 C-7.41844487 3.40296342 -11.50347298 5.27800815 -15.58837891 7.15332031 C-17.3555202 7.96443525 -19.12277192 8.77530967 -20.89013672 9.5859375 C-23.43225797 10.75196951 -25.97397928 11.91886937 -28.515625 13.0859375 C-29.30430969 13.44746918 -30.09299438 13.80900085 -30.90557861 14.18148804 C-31.64604431 14.52168976 -32.38651001 14.86189148 -33.14941406 15.21240234 C-33.79783264 15.50996429 -34.44625122 15.80752625 -35.11431885 16.11410522 C-37.05536905 16.99523434 -37.05536905 16.99523434 -39.05316162 18.17422485 C-41 19 -41 19 -44 18 C-38.42026954 12.70640957 -32.78575201 10 -25 10 C-24.67 8.68 -24.34 7.36 -24 6 C-25.32 6 -26.64 6 -28 6 C-28 5.01 -28 4.02 -28 3 C-25.03 2.34 -22.06 1.68 -19 1 C-19 1.66 -19 2.32 -19 3 C-18.46375 2.855625 -17.9275 2.71125 -17.375 2.5625 C-15 2 -15 2 -12.0625 1.5625 C-9.00884036 1.11843881 -9.00884036 1.11843881 -6.375 -0.125 C-3.66453393 -1.12359276 -2.68822867 -0.80533433 0 0 Z " fill="#ECBB1A" transform="translate(236,176)"/>
<path d="M0 0 C0.66 0.33 1.32 0.66 2 1 C-2.81449699 4.86410278 -7.21809991 7.81815091 -13 10 C-13.969375 10.391875 -14.93875 10.78375 -15.9375 11.1875 C-16.9584375 11.5896875 -16.9584375 11.5896875 -18 12 C-17.01 13.485 -17.01 13.485 -16 15 C-18.33348771 16.88184493 -20.10855297 18.00967212 -23.16015625 17.9765625 C-24.72307451 17.78348078 -26.28329628 17.56719406 -27.83984375 17.328125 C-30.24662781 16.96253755 -32.56915693 16.92158571 -35 17 C-32.02960045 14.61007348 -29.07391811 12.97830453 -25.60546875 11.40625 C-24.56712891 10.93316406 -23.52878906 10.46007812 -22.45898438 9.97265625 C-21.37939453 9.48667969 -20.29980469 9.00070313 -19.1875 8.5 C-18.11951172 8.01402344 -17.05152344 7.52804688 -15.95117188 7.02734375 C-13.88834094 6.09096904 -11.82316186 5.15974544 -9.75537109 4.234375 C-8.08163569 3.48456052 -6.4115653 2.72639254 -4.74853516 1.953125 C-3.19119786 1.24322765 -1.5988281 0.61073925 0 0 Z " fill="#F5C011" transform="translate(195,156)"/>
<path d="M0 0 C-4.96152183 2.34916623 -9.92370317 4.69693183 -14.88647461 7.04345703 C-16.57122258 7.84028204 -18.25579637 8.63747543 -19.94018555 9.43505859 C-22.37501972 10.58790748 -24.8104977 11.73938674 -27.24609375 12.890625 C-27.98709824 13.24183411 -28.72810272 13.59304321 -29.49156189 13.95489502 C-33.28965263 15.74853747 -37.09818912 17.51892452 -40.92211914 19.25683594 C-41.65523819 19.59100525 -42.38835724 19.92517456 -43.14369202 20.26947021 C-45 21 -45 21 -47 21 C-47 20.34 -47 19.68 -47 19 C-43.27034861 16.96564469 -41.33094958 16 -37 16 C-37.33 14.68 -37.66 13.36 -38 12 C-36.7625 11.7525 -35.525 11.505 -34.25 11.25 C-31.25534575 10.5235481 -30.22475124 10.23925132 -28.0625 7.9375 C-25.25992171 5.30477494 -23.09939304 5.59084584 -19.37109375 5.33984375 C-16.12568927 4.87468693 -13.70258018 3.54832066 -10.8515625 1.9921875 C-6.9723557 -0.08654357 -4.23204612 -1.41068204 0 0 Z " fill="#F1C01B" transform="translate(294,149)"/>
<path d="M0 0 C2.8515625 1.828125 2.8515625 1.828125 5.625 4.25 C7.00558594 5.43335937 7.00558594 5.43335937 8.4140625 6.640625 C10.6759412 8.70433306 12.8606059 10.81038538 15 13 C10.44615385 13.36923077 10.44615385 13.36923077 8.1875 11.5 C7.795625 11.005 7.40375 10.51 7 10 C6.01 11.485 6.01 11.485 5 13 C2.525 12.505 2.525 12.505 0 12 C0.66 11.67 1.32 11.34 2 11 C1.67 8.03 1.34 5.06 1 2 C-0.65 2.33 -2.3 2.66 -4 3 C-4 3.66 -4 4.32 -4 5 C-5.32 4.67 -6.64 4.34 -8 4 C-7.01 4.99 -6.02 5.98 -5 7 C-5.33 7.66 -5.66 8.32 -6 9 C-8.97 6.69 -11.94 4.38 -15 2 C-14.01 1.67 -13.02 1.34 -12 1 C-11.01 1.66 -10.02 2.32 -9 3 C-9 2.34 -9 1.68 -9 1 C-5.6479204 -0.11735987 -3.51610594 -0.36463321 0 0 Z " fill="#100F13" transform="translate(243,62)"/>
<path d="M0 0 C2.25238291 1.43013025 4.17051288 3.0489694 6.15332031 4.83349609 C6.85972656 5.46513672 7.56613281 6.09677734 8.29394531 6.74755859 C8.82503906 7.22966797 9.35613281 7.71177734 9.90332031 8.20849609 C5.65270675 9.62536728 3.18480406 8.40169648 -1.09667969 7.20849609 C-1.09667969 6.21849609 -1.09667969 5.22849609 -1.09667969 4.20849609 C-2.68135697 4.49277026 -4.26438539 4.78624427 -5.84667969 5.08349609 C-6.72839844 5.24591797 -7.61011719 5.40833984 -8.51855469 5.57568359 C-10.99401636 6.18329691 -12.92309083 6.88671909 -15.09667969 8.20849609 C-15.42667969 8.86849609 -15.75667969 9.52849609 -16.09667969 10.20849609 C-20.20229769 11.68032141 -22.92272125 12.50767521 -27.09667969 11.20849609 C-25.96230469 10.67740234 -24.82792969 10.14630859 -23.65917969 9.59912109 C-22.13832163 8.88563213 -20.61748969 8.17208748 -19.09667969 7.45849609 C-18.35289062 7.11044922 -17.60910156 6.76240234 -16.84277344 6.40380859 C-15.73095703 5.88173828 -15.73095703 5.88173828 -14.59667969 5.34912109 C-13.8503125 5.00171875 -13.10394531 4.65431641 -12.33496094 4.29638672 C-10.83218277 3.56597883 -9.34958894 2.79263761 -7.88964844 1.97998047 C-7.19484375 1.59648438 -6.50003906 1.21298828 -5.78417969 0.81787109 C-5.16929687 0.46176758 -4.55441406 0.10566406 -3.92089844 -0.26123047 C-2.09667969 -0.79150391 -2.09667969 -0.79150391 0 0 Z " fill="#D2A839" transform="translate(199.0966796875,38.79150390625)"/>
<path d="M0 0 C1.07600031 3.2352712 0.93045298 5.01069271 -0.25 8.1875 C-0.52972656 8.96351563 -0.80945313 9.73953125 -1.09765625 10.5390625 C-1.39542969 11.35117188 -1.69320312 12.16328125 -2 13 C-2.56784459 14.68570906 -3.13059875 16.37314406 -3.6875 18.0625 C-4.125 19.375 -4.5625 20.6875 -5 22 C-5.66 22 -6.32 22 -7 22 C-6.87625 23.0209375 -6.87625 23.0209375 -6.75 24.0625 C-7.04734241 27.55627337 -8.2319488 29.42065388 -10.04296875 32.3515625 C-11.11075168 34.19076412 -11.66418002 35.90112512 -12 38 C-8.535 37.505 -8.535 37.505 -5 37 C-8.41016497 39.86453858 -11.90694544 41.34703566 -16 43 C-15.42893115 38.79147084 -14.44309604 35.26483458 -12.75 31.375 C-12.30140625 30.32957031 -11.8528125 29.28414062 -11.390625 28.20703125 C-10.93171875 27.14871094 -10.4728125 26.09039062 -10 25 C-6.49684544 16.72866284 -3.18370234 8.39955511 0 0 Z " fill="#C7A637" transform="translate(99,203)"/>
<path d="M0 0 C3.63177507 2.04046726 6.58268448 4.28618385 9.625 7.125 C14.91348636 11.97543403 20.40835294 16.50329524 26 21 C22.23375329 22.25541557 20.62811066 21.37061958 17 20 C17 18.68 17 17.36 17 16 C16.34 16 15.68 16 15 16 C15 15.34 15 14.68 15 14 C12.03 13.505 12.03 13.505 9 13 C9 12.34 9 11.68 9 11 C6.69 10.34 4.38 9.68 2 9 C2.66 8.01 3.32 7.02 4 6 C2.68 5.34 1.36 4.68 0 4 C0 2.68 0 1.36 0 0 Z " fill="#D7AE37" transform="translate(209,48)"/>
<path d="M0 0 C1.31896465 0.92838287 2.62998689 1.86805732 3.9375 2.8125 C4.66839844 3.33457031 5.39929688 3.85664063 6.15234375 4.39453125 C8 6 8 6 9 9 C8.33496094 11.2331543 8.33496094 11.2331543 7.234375 13.82421875 C6.83863281 14.77103516 6.44289062 15.71785156 6.03515625 16.69335938 C5.61105469 17.68142578 5.18695313 18.66949219 4.75 19.6875 C3.93125455 21.6284691 3.11352867 23.56986862 2.296875 25.51171875 C1.90435547 26.44032715 1.51183594 27.36893555 1.10742188 28.32568359 C-0.35324838 31.85306057 -1.68990267 35.41424659 -3 39 C-7.58234046 39 -8.05508122 38.4819242 -11.25 35.5 C-11.95640625 34.8503125 -12.6628125 34.200625 -13.390625 33.53125 C-13.92171875 33.0259375 -14.4528125 32.520625 -15 32 C-11.07620945 32 -9.99491322 33.60406942 -7 36 C-6.01 36 -5.02 36 -4 36 C-3.34956281 34.27255984 -2.70485156 32.5429631 -2.0625 30.8125 C-1.70285156 29.84957031 -1.34320313 28.88664062 -0.97265625 27.89453125 C-0.08843438 25.2631722 0.52568586 22.73105092 1 20 C1.66 20 2.32 20 3 20 C3.144375 18.96875 3.28875 17.9375 3.4375 16.875 C3.78586544 14.4751492 4.15651875 12.07827845 4.5625 9.6875 C5.05355853 7.12481051 5.05355853 7.12481051 5 5 C4.360625 4.731875 3.72125 4.46375 3.0625 4.1875 C1 3 1 3 0 0 Z " fill="#D9B13C" transform="translate(246,295)"/>
<path d="M0 0 C4.10757274 2.24867121 7.38243568 5.03929617 10.75 8.25 C15.13398564 12.36254409 19.61771596 16.17412282 24.453125 19.7578125 C24.96359375 20.16773438 25.4740625 20.57765625 26 21 C26 21.33 26 21.66 26 22 C23.37428995 22.38613383 21.6156121 22.38493778 19.33203125 20.95703125 C17.6875 19.625 17.6875 19.625 15 17 C15 16.34 15 15.68 15 15 C13.68 14.67 12.36 14.34 11 14 C11.33 13.01 11.66 12.02 12 11 C11.236875 11.0825 10.47375 11.165 9.6875 11.25 C7 11 7 11 5.1875 9.1875 C4 7 4 7 4 4 C3.01 4 2.02 4 1 4 C0.67 2.68 0.34 1.36 0 0 Z " fill="#DDB231" transform="translate(220,273)"/>
<path d="M0 0 C2.82323912 1.84621232 5.26228353 3.98223271 7.81518555 6.18701172 C6.82518555 6.51701172 5.83518555 6.84701172 4.81518555 7.18701172 C4.81518555 6.52701172 4.81518555 5.86701172 4.81518555 5.18701172 C1.84518555 4.19701172 -1.12481445 3.20701172 -4.18481445 2.18701172 C-4.18481445 2.84701172 -4.18481445 3.50701172 -4.18481445 4.18701172 C-5.50481445 4.18701172 -6.82481445 4.18701172 -8.18481445 4.18701172 C-8.18481445 5.17701172 -8.18481445 6.16701172 -8.18481445 7.18701172 C-9.17481445 7.18701172 -10.16481445 7.18701172 -11.18481445 7.18701172 C-11.51481445 7.84701172 -11.84481445 8.50701172 -12.18481445 9.18701172 C-13.45325195 9.15607422 -13.45325195 9.15607422 -14.74731445 9.12451172 C-18.30374222 9.18917404 -21.67574948 9.62556132 -25.18481445 10.18701172 C-21.08384701 7.45303342 -16.71339459 5.50411463 -12.24731445 3.43701172 C-10.88703125 2.78152344 -10.88703125 2.78152344 -9.49926758 2.11279297 C-8.62334961 1.70931641 -7.74743164 1.30583984 -6.8449707 0.89013672 C-6.04712158 0.5153418 -5.24927246 0.14054688 -4.42724609 -0.24560547 C-2.18481445 -0.81298828 -2.18481445 -0.81298828 0 0 Z " fill="#D4B037" transform="translate(199.184814453125,254.81298828125)"/>
<path d="M0 0 C-0.86625 0.37125 -0.86625 0.37125 -1.75 0.75 C-4.12906027 1.90771209 -4.12906027 1.90771209 -5.875 4.125 C-8 6 -8 6 -11.25 6.25 C-12.1575 6.1675 -13.065 6.085 -14 6 C-14 6.66 -14 7.32 -14 8 C-21.42857143 12.28571429 -21.42857143 12.28571429 -25 14 C-25 13.34 -25 12.68 -25 12 C-25.5775 12.350625 -26.155 12.70125 -26.75 13.0625 C-29.39786506 14.16577711 -30.33185326 13.80156509 -33 13 C-32.30438965 12.68248779 -31.6087793 12.36497559 -30.89208984 12.0378418 C-27.71922188 10.58883005 -24.54710542 9.13818028 -21.375 7.6875 C-19.73337891 6.93823242 -19.73337891 6.93823242 -18.05859375 6.17382812 C-16.99511719 5.68720703 -15.93164062 5.20058594 -14.8359375 4.69921875 C-13.86188965 4.25408936 -12.8878418 3.80895996 -11.88427734 3.3503418 C-9.83149404 2.38928335 -7.81309185 1.35328372 -5.82275391 0.26879883 C-3 -1 -3 -1 0 0 Z " fill="#1F1002" transform="translate(184,201)"/>
<path d="M0 0 C2 2 2 2 2 6 C0.94941406 6.30292969 -0.10117188 6.60585937 -1.18359375 6.91796875 C-11.57522826 9.98962926 -11.57522826 9.98962926 -21.10546875 15.08203125 C-23.50176443 16.24312297 -25.37156311 16.15888651 -28 16 C-25.03175669 13.61643048 -22.06543 11.96542146 -18.61328125 10.37109375 C-17.59298828 9.89349609 -16.57269531 9.41589844 -15.52148438 8.92382812 C-13.37102263 7.92778346 -11.21997426 6.93300437 -9.06835938 5.93945312 C-8.05193359 5.46314453 -7.03550781 4.98683594 -5.98828125 4.49609375 C-5.05540283 4.06482178 -4.12252441 3.6335498 -3.16137695 3.18920898 C-0.85735691 2.18809606 -0.85735691 2.18809606 0 0 Z " fill="#D2A824" transform="translate(252,128)"/>
<path d="M0 0 C-3.41376807 1.65189537 -6.8314872 3.29544896 -10.25 4.9375 C-11.70212891 5.64036133 -11.70212891 5.64036133 -13.18359375 6.35742188 C-14.11816406 6.80537109 -15.05273438 7.25332031 -16.015625 7.71484375 C-16.87446289 8.12855225 -17.73330078 8.54226074 -18.61816406 8.96850586 C-20.74937071 9.89146077 -22.73364413 10.52057857 -25 11 C-25 10.34 -25 9.68 -25 9 C-24.34 9 -23.68 9 -23 9 C-23.66 7.35 -24.32 5.7 -25 4 C-18.375 3.875 -18.375 3.875 -15 5 C-15 4.34 -15 3.68 -15 3 C-15.66 2.67 -16.32 2.34 -17 2 C-16.40832031 1.95101562 -15.81664062 1.90203125 -15.20703125 1.8515625 C-10.18883505 1.37675764 -4.54536425 -1.51512142 0 0 Z " fill="#E8B825" transform="translate(170,206)"/>
<path d="M0 0 C2.97 0.495 2.97 0.495 6 1 C6.33 2.32 6.66 3.64 7 5 C10.29102008 5.90786761 12.81119049 6.59440475 16 5 C16.66 5 17.32 5 18 5 C18 3.35 18 1.7 18 0 C19.32 0.66 20.64 1.32 22 2 C21.60404157 3.48484412 21.18249294 4.9628831 20.75 6.4375 C20.51796875 7.26121094 20.2859375 8.08492188 20.046875 8.93359375 C19 11 19 11 17.06640625 11.921875 C14.05554998 12.03570699 12.77531697 10.35245401 10.65234375 8.40234375 C8.93589083 6.94559056 7.23228557 5.93414219 5.25 4.875 C2 3 2 3 0 0 Z " fill="#F2BE16" transform="translate(224,320)"/>
<path d="M0 0 C3.04386724 -0.08226668 5.07175348 0.02391783 8 1 C10.63804589 0.60602665 10.63804589 0.60602665 13 0 C13.79953138 3.28696233 14.09658936 4.71023192 13 8 C13 8.99 13 9.98 13 11 C9.97009905 9.28032649 7.23672704 7.70761694 5 5 C5 4.34 5 3.68 5 3 C3.35 3 1.7 3 0 3 C0 2.01 0 1.02 0 0 Z " fill="#050408" transform="translate(268,94)"/>
<path d="M0 0 C5.10472965 1.27618241 6.82539996 2.93254369 10 7 C11.99145391 8.01691264 13.99187074 9.01642648 16 10 C19.71851022 13.35572873 22.84529301 17.12421713 26 21 C21.87255657 21 20.95305417 19.38249504 18 16.5625 C13.21681944 12.05648781 8.26812968 7.89823317 3.1171875 3.8125 C1 2 1 2 0 0 Z " fill="#D0AE3D" transform="translate(176,279)"/>
<path d="M0 0 C-2.2551922 2.2551922 -4.0047587 2.97723468 -7 4 C-7.99 4 -8.98 4 -10 4 C-9.67 5.32 -9.34 6.64 -9 8 C-9.78503906 8.09796875 -10.57007812 8.1959375 -11.37890625 8.296875 C-17.83098609 9.21520784 -22.59997334 10.31816364 -28 14 C-27.82763672 12.17700195 -27.82763672 12.17700195 -27 10 C-24.73095703 8.52026367 -24.73095703 8.52026367 -21.7578125 7.16796875 C-20.15873047 6.43610352 -20.15873047 6.43610352 -18.52734375 5.68945312 C-17.40457031 5.19380859 -16.28179687 4.69816406 -15.125 4.1875 C-14.00996094 3.67251953 -12.89492187 3.15753906 -11.74609375 2.62695312 C-3.39998237 -1.13332746 -3.39998237 -1.13332746 0 0 Z " fill="#D9B32F" transform="translate(128,189)"/>
<path d="M0 0 C-3.60799819 1.69767939 -7.21929861 3.38810221 -10.83374023 5.07202148 C-12.0615456 5.64525604 -13.28844889 6.22042703 -14.5144043 6.79760742 C-16.28192629 7.62934027 -18.05304066 8.45342525 -19.82421875 9.27734375 C-20.88729248 9.77484131 -21.95036621 10.27233887 -23.0456543 10.78491211 C-25.72960635 11.88879025 -28.14226544 12.55412872 -31 13 C-25.67238987 6.60686784 -18.20238542 3.86340899 -10 3 C-10 2.34 -10 1.68 -10 1 C-6.16112237 -0.48320272 -3.93795909 -1.22419163 0 0 Z " fill="#D8B037" transform="translate(223,182)"/>
<path d="M0 0 C0 0.66 0 1.32 0 2 C0.66 2.33 1.32 2.66 2 3 C1.34 3 0.68 3 0 3 C0.185625 3.61875 0.37125 4.2375 0.5625 4.875 C1 7 1 7 0 9 C-1.65 9 -3.3 9 -5 9 C-5 9.66 -5 10.32 -5 11 C-6.32 10.67 -7.64 10.34 -9 10 C-8.67 9.4225 -8.34 8.845 -8 8.25 C-6.72924102 5.80116138 -6.72924102 5.80116138 -7 2 C-4 0 -4 0 0 0 Z " fill="#040304" transform="translate(191,32)"/>
<path d="M0 0 C1.32 0 2.64 0 4 0 C4 0.99 4 1.98 4 3 C4.5775 2.649375 5.155 2.29875 5.75 1.9375 C8.39786506 0.83422289 9.33185326 1.19843491 12 2 C8.90034597 3.5094588 5.79458597 5.00590667 2.6875 6.5 C1.80642578 6.92925781 0.92535156 7.35851562 0.01757812 7.80078125 C-0.82998047 8.20683594 -1.67753906 8.61289063 -2.55078125 9.03125 C-3.33106689 9.40830078 -4.11135254 9.78535156 -4.9152832 10.17382812 C-7 11 -7 11 -10 11 C-10 10.34 -10 9.68 -10 9 C-8.71086513 8.32845067 -7.41859796 7.66291141 -6.125 7 C-5.40570313 6.62875 -4.68640625 6.2575 -3.9453125 5.875 C-2 5 -2 5 0 5 C0 3.35 0 1.7 0 0 Z " fill="#E5B42A" transform="translate(180,194)"/>
<path d="M0 0 C0.66 0.33 1.32 0.66 2 1 C-4.80096934 6.45844033 -11.39276747 10.05119264 -20 12 C-22.20703125 11.546875 -22.20703125 11.546875 -24 11 C-20.04755036 9.13309636 -16.08717336 7.28366591 -12.125 5.4375 C-10.99707031 4.90447266 -9.86914062 4.37144531 -8.70703125 3.82226562 C-7.63066406 3.32275391 -6.55429688 2.82324219 -5.4453125 2.30859375 C-3.95281982 1.60947876 -3.95281982 1.60947876 -2.43017578 0.89624023 C-1.62821777 0.60048096 -0.82625977 0.30472168 0 0 Z " fill="#D7B130" transform="translate(195,156)"/>
<path d="M0 0 C1.65 0.33 3.3 0.66 5 1 C4.67 1.66 4.34 2.32 4 3 C4.66 3.66 5.32 4.32 6 5 C6.144375 5.680625 6.28875 6.36125 6.4375 7.0625 C6.7159375 8.0215625 6.7159375 8.0215625 7 9 C7.99 9.33 8.98 9.66 10 10 C10.5625 11.9375 10.5625 11.9375 11 14 C11.66 14.66 12.32 15.32 13 16 C8.66314164 16 7.0556673 13.91985986 4 11 C4 10.01 4 9.02 4 8 C3.34 8 2.68 8 2 8 C0.61767557 6.37373596 -0.71937515 4.7074998 -2 3 C-1.34 3 -0.68 3 0 3 C0 2.01 0 1.02 0 0 Z " fill="#FBBF10" transform="translate(186,65)"/>
<path d="M0 0 C1.83984375 0.20703125 1.83984375 0.20703125 3.9375 0.8125 C4.62714844 1.00457031 5.31679687 1.19664063 6.02734375 1.39453125 C7.69247675 1.90561168 9.34758237 2.44919412 11 3 C11 4.65 11 6.3 11 8 C8.76953125 8.71484375 8.76953125 8.71484375 6 9 C3.76171875 7.56640625 3.76171875 7.56640625 1.6875 5.5625 C0.99011719 4.90378906 0.29273438 4.24507812 -0.42578125 3.56640625 C-0.94527344 3.04949219 -1.46476563 2.53257813 -2 2 C-1.34 1.34 -0.68 0.68 0 0 Z " fill="#F5F5F1" transform="translate(229,47)"/>
<path d="M0 0 C0.99 0 1.98 0 3 0 C3 0.66 3 1.32 3 2 C-0.09965403 3.5094588 -3.20541403 5.00590667 -6.3125 6.5 C-7.19357422 6.92925781 -8.07464844 7.35851562 -8.98242188 7.80078125 C-9.82998047 8.20683594 -10.67753906 8.61289063 -11.55078125 9.03125 C-12.33106689 9.40830078 -13.11135254 9.78535156 -13.9152832 10.17382812 C-16 11 -16 11 -19 11 C-18 8 -18 8 -15 6 C-12.3125 5.875 -12.3125 5.875 -10 6 C-10 5.01 -10 4.02 -10 3 C-6.7 2.67 -3.4 2.34 0 2 C0 1.34 0 0.68 0 0 Z " fill="#DBB235" transform="translate(313,137)"/>
<path d="M0 0 C7.05592574 3.4495637 12.34628283 8.64277071 18 14 C14.25 15.125 14.25 15.125 12 14 C12 13.34 12 12.68 12 12 C10.68 12 9.36 12 8 12 C8 10.35 8 8.7 8 7 C7.236875 6.9175 6.47375 6.835 5.6875 6.75 C2.45284809 5.84730645 1.64900735 4.86406539 0 2 C0 1.34 0 0.68 0 0 Z " fill="#DAB03A" transform="translate(264,95)"/>
<path d="M0 0 C0 0.99 0 1.98 0 3 C0.66 3.33 1.32 3.66 2 4 C1.34 4 0.68 4 0 4 C0 4.66 0 5.32 0 6 C0.66 6.33 1.32 6.66 2 7 C1.67 7.66 1.34 8.32 1 9 C-1.31 8.34 -3.62 7.68 -6 7 C-6 6.34 -6 5.68 -6 5 C-6.99 4.67 -7.98 4.34 -9 4 C-9 3.34 -9 2.68 -9 2 C-7.68 2.33 -6.36 2.66 -5 3 C-5 2.34 -5 1.68 -5 1 C-2 0 -2 0 0 0 Z " fill="#040406" transform="translate(244,64)"/>
<path d="M0 0 C-5.9435884 3.30199356 -11.29119838 4.95518663 -18 6 C-18.33 4.68 -18.66 3.36 -19 2 C-4.9375 -1.64583333 -4.9375 -1.64583333 0 0 Z " fill="#F6C015" transform="translate(131,224)"/>
<path d="M0 0 C4 0 4 0 5.75 1.375 C7 3 7 3 7 5 C7.598125 5.28875 8.19625 5.5775 8.8125 5.875 C11 7 11 7 14 9 C14 9.66 14 10.32 14 11 C15.65 11.33 17.3 11.66 19 12 C19.33 12.99 19.66 13.98 20 15 C20.66 15.33 21.32 15.66 22 16 C21.67 16.99 21.34 17.98 21 19 C20.11957031 18.16855469 19.23914063 17.33710937 18.33203125 16.48046875 C17.15907242 15.38257928 15.98588312 14.28493599 14.8125 13.1875 C14.23435547 12.64029297 13.65621094 12.09308594 13.06054688 11.52929688 C9.8613043 8.5469521 6.7677234 6.2492812 3 4 C3 3.34 3 2.68 3 2 C2.01 1.67 1.02 1.34 0 1 C0 0.67 0 0.34 0 0 Z " fill="#D5AD3A" transform="translate(230,109)"/>
<path d="M0 0 C0.33 0 0.66 0 1 0 C1.38281159 5.23175837 0.21854707 8.37802694 -2 13 C1.465 12.505 1.465 12.505 5 12 C1.58983503 14.86453858 -1.90694544 16.34703566 -6 18 C-5.41347648 13.51006131 -4.2356462 9.77456816 -2.4375 5.625 C-1.98246094 4.56539062 -1.52742188 3.50578125 -1.05859375 2.4140625 C-0.70925781 1.61742187 -0.35992187 0.82078125 0 0 Z " fill="#CDA743" transform="translate(89,228)"/>
<path d="M0 0 C1.4540625 0.0309375 1.4540625 0.0309375 2.9375 0.0625 C0.62096964 2.37903036 -1.46007576 3.2989213 -4.4375 4.6640625 C-5.50484375 5.15390625 -6.5721875 5.64375 -7.671875 6.1484375 C-8.79078125 6.65632812 -9.9096875 7.16421875 -11.0625 7.6875 C-12.74085938 8.4609375 -12.74085938 8.4609375 -14.453125 9.25 C-22.80431548 13.0625 -22.80431548 13.0625 -25.0625 13.0625 C-25.0625 12.4025 -25.0625 11.7425 -25.0625 11.0625 C-21.33284861 9.02814469 -19.39344958 8.0625 -15.0625 8.0625 C-15.0625 7.4025 -15.0625 6.7425 -15.0625 6.0625 C-13.7425 6.0625 -12.4225 6.0625 -11.0625 6.0625 C-11.0625 5.4025 -11.0625 4.7425 -11.0625 4.0625 C-9.928125 3.588125 -8.79375 3.11375 -7.625 2.625 C-1.72003425 0.03510274 -1.72003425 0.03510274 0 0 Z " fill="#D3AB38" transform="translate(272.0625,156.9375)"/>
<path d="M0 0 C0.66 0.33 1.32 0.66 2 1 C1 4 1 4 -1.00952148 5.25854492 C-1.87134033 5.66177979 -2.73315918 6.06501465 -3.62109375 6.48046875 C-4.55630859 6.92197266 -5.49152344 7.36347656 -6.45507812 7.81835938 C-7.93137695 8.49608398 -7.93137695 8.49608398 -9.4375 9.1875 C-10.90799805 9.88262695 -10.90799805 9.88262695 -12.40820312 10.59179688 C-19.70145665 14 -19.70145665 14 -22 14 C-22 13.34 -22 12.68 -22 12 C-18.80575067 10.36392107 -15.63915151 8.85321417 -12.3125 7.5 C-9.06258675 6.28658141 -9.06258675 6.28658141 -7.4375 4.3125 C-6 3 -6 3 -2.8125 2.8125 C-1.884375 2.874375 -0.95625 2.93625 0 3 C0 2.01 0 1.02 0 0 Z " fill="#241401" transform="translate(250,127)"/>
<path d="M0 0 C5.59363406 4.06133537 10.85963514 8.3791401 16 13 C14.68 13.33 13.36 13.66 12 14 C12 13.34 12 12.68 12 12 C10.68 11.34 9.36 10.68 8 10 C8 9.34 8 8.68 8 8 C7.236875 7.9175 6.47375 7.835 5.6875 7.75 C3 7 3 7 1.1875 5.125 C0 3 0 3 0 0 Z " fill="#241603" transform="translate(176,280)"/>
<path d="M0 0 C3.1414436 1.83250877 6.22602027 3.63698023 9 6 C9 6.66 9 7.32 9 8 C9.721875 8.20625 10.44375 8.4125 11.1875 8.625 C14.9255306 10.45248163 16.49246917 12.70438806 19 16 C18.01 16 17.02 16 16 16 C16 15.34 16 14.68 16 14 C15.05125 13.773125 14.1025 13.54625 13.125 13.3125 C10 12 10 12 8.875 9.4375 C8.58625 8.633125 8.2975 7.82875 8 7 C5.98491642 6.26676204 5.98491642 6.26676204 4 6 C3.67 5.34 3.34 4.68 3 4 C2.01 4 1.02 4 0 4 C0 2.68 0 1.36 0 0 Z " fill="#281703" transform="translate(224,105)"/>
<path d="M0 0 C0 0.66 0 1.32 0 2 C-3.46153846 5 -3.46153846 5 -6 5 C-6 6.32 -6 7.64 -6 9 C-9.63 8.67 -13.26 8.34 -17 8 C-13.71148901 5.53361676 -11.0647877 3.96842898 -7.375 2.3125 C-6.41335937 1.87550781 -5.45171875 1.43851563 -4.4609375 0.98828125 C-2 0 -2 0 0 0 Z " fill="#201205" transform="translate(205,190)"/>
<path d="M0 0 C0 0.99 0 1.98 0 3 C-0.99 3 -1.98 3 -3 3 C-3 3.66 -3 4.32 -3 5 C-4.32 4.67 -5.64 4.34 -7 4 C-6.01 4.99 -5.02 5.98 -4 7 C-4.33 7.66 -4.66 8.32 -5 9 C-7.97 6.69 -10.94 4.38 -14 2 C-13.01 1.67 -12.02 1.34 -11 1 C-10.01 1.66 -9.02 2.32 -8 3 C-8 2.34 -8 1.68 -8 1 C-5.07175348 0.02391783 -3.04386724 -0.08226668 0 0 Z " fill="#170E03" transform="translate(242,62)"/>
<path d="M0 0 C-3 2 -3 2 -5 2 C-3.07608351 7.31411494 -3.07608351 7.31411494 1 11 C0.67 11.66 0.34 12.32 0 13 C-3.3 10.36 -6.6 7.72 -10 5 C-9 2 -9 2 -6.125 0.25 C-3 -1 -3 -1 0 0 Z " fill="#D1AF40" transform="translate(175,266)"/>
<path d="M0 0 C4.69165109 2.97519337 8.84703191 6.31393365 13 10 C9.32264395 11.22578535 8.44933477 10.46596728 5 9 C4.01 9 3.02 9 2 9 C2.226875 8.401875 2.45375 7.80375 2.6875 7.1875 C2.790625 6.465625 2.89375 5.74375 3 5 C1.60411246 3.35405861 1.60411246 3.35405861 0 2 C0 1.34 0 0.68 0 0 Z " fill="#E0B628" transform="translate(207,262)"/>
<path d="M0 0 C5.96392565 3.60974447 10.89628532 8.27956824 16 13 C15.01 13 14.02 13 13 13 C12.38125 12.3503125 12.38125 12.3503125 11.75 11.6875 C9.17738656 9.20676561 6.31295046 8.31267848 3 7 C3 6.34 3 5.68 3 5 C2.01 4.67 1.02 4.34 0 4 C0 2.68 0 1.36 0 0 Z " fill="#D0AA3C" transform="translate(294,120)"/>
<path d="M0 0 C2.62901288 1.52206009 4.84365964 2.84365964 7 5 C7 5.99 7 6.98 7 8 C7.66 8 8.32 8 9 8 C9.66 9.65 10.32 11.3 11 13 C10.34 13 9.68 13 9 13 C9 12.34 9 11.68 9 11 C6.69 10.34 4.38 9.68 2 9 C2.66 8.01 3.32 7.02 4 6 C2.68 5.34 1.36 4.68 0 4 C0 2.68 0 1.36 0 0 Z " fill="#F7C20D" transform="translate(209,48)"/>
<path d="M0 0 C3.18141867 -0.46557346 5.25343123 -0.50963377 7.95703125 1.3359375 C9.6935608 2.84258024 11.369718 4.37936464 13 6 C8.74938644 7.41687119 6.28148375 6.19320039 2 5 C2 4.01 2 3.02 2 2 C1.34 1.34 0.68 0.68 0 0 Z " fill="#E7B82B" transform="translate(196,41)"/>
<path d="M0 0 C3.65316671 1.24976756 4.78065836 1.67098753 7 5 C4.625 4.75 4.625 4.75 2 4 C0.6875 1.9375 0.6875 1.9375 0 0 Z M-1 4 C-0.34 4.33 0.32 4.66 1 5 C1 5.99 1 6.98 1 8 C0.01 8.33 -0.98 8.66 -2 9 C-1.34 9.33 -0.68 9.66 0 10 C-0.33 10.66 -0.66 11.32 -1 12 C-2.65 10.35 -4.3 8.7 -6 7 C-3.625 5.4375 -3.625 5.4375 -1 4 Z " fill="#19160B" transform="translate(253,288)"/>
<path d="M0 0 C-3.0296652 2.44814179 -6.07549599 4.09452853 -9.625 5.6875 C-10.58664063 6.12449219 -11.54828125 6.56148437 -12.5390625 7.01171875 C-15 8 -15 8 -17 8 C-17 7.01 -17 6.02 -17 5 C-15.10908264 4.15557119 -13.21202485 3.32488413 -11.3125 2.5 C-10.25675781 2.0359375 -9.20101562 1.571875 -8.11328125 1.09375 C-5.14372184 0.05049199 -3.10804937 -0.23065301 0 0 Z " fill="#1F0E01" transform="translate(190,158)"/>
<path d="M0 0 C1.65 0 3.3 0 5 0 C5 0.66 5 1.32 5 2 C5.99 2.33 6.98 2.66 8 3 C11.25677815 5.86906647 13.18143304 7.7343566 14 12 C9.21586287 8.46653832 4.47785614 4.91812412 0 1 C0 0.67 0 0.34 0 0 Z " fill="#2A1704" transform="translate(268,97)"/>
<path d="M0 0 C0.66 0.33 1.32 0.66 2 1 C0.19324846 3.56917506 -1.62480501 5.93250073 -4 8 C-7.125 8 -7.125 8 -10 7 C-11.33076989 6.65657551 -12.66368567 6.32117426 -14 6 C-11.71220962 4.96959833 -9.42048864 3.95047982 -7.125 2.9375 C-6.47402344 2.64294922 -5.82304687 2.34839844 -5.15234375 2.04492188 C-3.45989459 1.30338487 -1.73131425 0.64560999 0 0 Z " fill="#231503" transform="translate(134,222)"/>
<path d="M0 0 C6.875 2.75 6.875 2.75 8 5 C7.67 5.66 7.34 6.32 7 7 C3.9375 7.625 3.9375 7.625 1 8 C0 2.25 0 2.25 0 0 Z " fill="#F1B825" transform="translate(306,132)"/>
<path d="M0 0 C0.99 0.33 1.98 0.66 3 1 C2.13375 1.37125 2.13375 1.37125 1.25 1.75 C-1.11706555 2.87556518 -1.11706555 2.87556518 -2.625 5.0625 C-6.30426661 8.06400697 -10.37693857 7.82354727 -15 8 C-12.24798351 5.80090007 -9.61415175 4.250827 -6.375 2.875 C-5.59898437 2.54242188 -4.82296875 2.20984375 -4.0234375 1.8671875 C-3.35570312 1.58101562 -2.68796875 1.29484375 -2 1 C-1.34 0.67 -0.68 0.34 0 0 Z " fill="#2A1804" transform="translate(181,200)"/>
<path d="M0 0 C6.09425346 3.78831972 11.49400055 8.41493284 17 13 C14 14 14 14 11.6875 13 C8.75825041 10.82009333 6.69211138 8.46441024 4.4296875 5.62109375 C2.90226456 3.74913641 2.90226456 3.74913641 0 2 C0 1.34 0 0.68 0 0 Z " fill="#D6B23D" transform="translate(243,77)"/>
<path d="M0 0 C-0.98884704 2.56781248 -1.55586589 3.76249971 -4.0234375 5.08203125 C-4.79945313 5.32308594 -5.57546875 5.56414062 -6.375 5.8125 C-7.14585937 6.06644531 -7.91671875 6.32039062 -8.7109375 6.58203125 C-11.17344686 7.03167033 -12.64915604 6.78898188 -15 6 C-12.87717331 4.99539469 -10.75166979 3.99644398 -8.625 3 C-7.44164062 2.443125 -6.25828125 1.88625 -5.0390625 1.3125 C-2 0 -2 0 0 0 Z " fill="#2A1705" transform="translate(151,215)"/>
<path d="M0 0 C2.97 0.495 2.97 0.495 6 1 C6.0825 1.61875 6.165 2.2375 6.25 2.875 C6.78571015 5.1304373 6.78571015 5.1304373 8.75 6 C9.86375 6.495 9.86375 6.495 11 7 C12.68889872 8.3050581 14.3603279 9.63360658 16 11 C15.67 11.66 15.34 12.32 15 13 C13.24775086 11.58611621 11.49829345 10.16877217 9.75 8.75 C8.77546875 7.96109375 7.8009375 7.1721875 6.796875 6.359375 C4.39752456 4.33534195 2.17588563 2.25877651 0 0 Z " fill="#D3AF37" transform="translate(198,82)"/>
<path d="M0 0 C2.9719385 1.12451727 5.33440687 2.22293791 8 4 C8 4.66 8 5.32 8 6 C8.5775 6.268125 9.155 6.53625 9.75 6.8125 C12.05550043 8.02929189 14.02056192 9.30333879 16 11 C16 11.66 16 12.32 16 13 C16.66 13 17.32 13 18 13 C17.67 13.66 17.34 14.32 17 15 C14.28095421 12.77928467 11.56320174 10.55702659 8.84765625 8.33203125 C7.21232176 6.99280671 5.57532014 5.65559988 3.93359375 4.32421875 C2.60408374 3.23818528 1.29845013 2.1229839 0 1 C0 0.67 0 0.34 0 0 Z " fill="#D0AA39" transform="translate(172,60)"/>
<path d="M0 0 C-5.94 2.64 -11.88 5.28 -18 8 C-18.33 7.34 -18.66 6.68 -19 6 C-15.55790564 3.82209302 -12.19533779 2.16026244 -8.375 0.75 C-6.96347656 0.21632812 -6.96347656 0.21632812 -5.5234375 -0.328125 C-3 -1 -3 -1 0 0 Z " fill="#DBB43A" transform="translate(294,149)"/>
<path d="M0 0 C0.33 0.66 0.66 1.32 1 2 C-1.05585097 3.17993203 -3.11836541 4.34378455 -5.1875 5.5 C-6.33605469 6.1496875 -7.48460937 6.799375 -8.66796875 7.46875 C-11.85137082 8.93169679 -13.57307465 9.36140832 -17 9 C-13.67513619 6.25945632 -10.16942114 4.57623951 -6.25 2.8125 C-5.07953125 2.28269531 -3.9090625 1.75289062 -2.703125 1.20703125 C-1.81109375 0.80871094 -0.9190625 0.41039062 0 0 Z " fill="#D2AD38" transform="translate(241,135)"/>
<path d="M0 0 C0 0.66 0 1.32 0 2 C-0.99 2 -1.98 2 -3 2 C-3.33 2.66 -3.66 3.32 -4 4 C-5.2684375 3.9690625 -5.2684375 3.9690625 -6.5625 3.9375 C-10.11892777 4.00216232 -13.49093503 4.4385496 -17 5 C-11.33889089 1.22592726 -6.87521281 0 0 0 Z " fill="#E1B426" transform="translate(191,260)"/>
<path d="M0 0 C0.721875 0.185625 1.44375 0.37125 2.1875 0.5625 C5.12826973 1.01995307 7.14103058 0.73516357 10 0 C9.34 2.31 8.68 4.62 8 7 C2.25 3.375 2.25 3.375 0 0 Z " fill="#1E1303" transform="translate(199,254)"/>
<path d="M0 0 C3.45918019 1.21538764 5.44032926 2.44032926 8 5 C11.00259517 5.33218192 11.00259517 5.33218192 12.6875 3.5 C13.3371875 2.7575 13.3371875 2.7575 14 2 C13.34 3.98 12.68 5.96 12 8 C7.44317123 8 6.94762913 7.50550311 3.75 4.5625 C3.04359375 3.92441406 2.3371875 3.28632813 1.609375 2.62890625 C0 1 0 1 0 0 Z " fill="#C09F43" transform="translate(231,326)"/>
<path d="M0 0 C0.33 0 0.66 0 1 0 C0.38029501 9.80843419 0.38029501 9.80843419 -3 14 C-3.66 14 -4.32 14 -5 14 C-4.54636829 12.41531323 -4.08688548 10.83230076 -3.625 9.25 C-3.36976563 8.36828125 -3.11453125 7.4865625 -2.8515625 6.578125 C-2.0790066 4.23919428 -1.16374324 2.16557438 0 0 Z " fill="#2F1B05" transform="translate(250,314)"/>
<path d="M0 0 C2.01822917 0.06510417 4.03645833 0.13020833 6.0546875 0.1953125 C3.69515656 2.55484344 2.27573133 2.68672663 -0.9453125 3.1953125 C-1.6053125 5.1753125 -2.2653125 7.1553125 -2.9453125 9.1953125 C-3.2753125 9.1953125 -3.6053125 9.1953125 -3.9453125 9.1953125 C-4.0703125 5.8203125 -4.0703125 5.8203125 -3.9453125 2.1953125 C-1.9453125 0.1953125 -1.9453125 0.1953125 0 0 Z " fill="#1E1004" transform="translate(101.9453125,195.8046875)"/>
<path d="M0 0 C0 0.66 0 1.32 0 2 C-2.0762657 3.03513247 -4.16131479 4.05266211 -6.25 5.0625 C-7.41015625 5.63097656 -8.5703125 6.19945312 -9.765625 6.78515625 C-12.90644333 7.96485975 -13.99353048 8.30230734 -17 7 C-14.54379149 5.82866942 -12.08525083 4.66278278 -9.625 3.5 C-8.92632812 3.16613281 -8.22765625 2.83226562 -7.5078125 2.48828125 C-2.2265625 0 -2.2265625 0 0 0 Z " fill="#301C03" transform="translate(279,156)"/>
<path d="M0 0 C4.51045941 2.46025059 8.18504423 5.60282037 12 9 C11.01 9.33 10.02 9.66 9 10 C8.67 9.01 8.34 8.02 8 7 C5.03 6.505 5.03 6.505 2 6 C1.34 4.02 0.68 2.04 0 0 Z " fill="#D8B03D" transform="translate(282,110)"/>
<path d="M0 0 C0.66 0.33 1.32 0.66 2 1 C-1.46044155 4.02788635 -5.52249221 5.98556464 -10 7 C-12.25 6.578125 -12.25 6.578125 -14 6 C-11.71220962 4.96959833 -9.42048864 3.95047982 -7.125 2.9375 C-6.47402344 2.64294922 -5.82304687 2.34839844 -5.15234375 2.04492188 C-3.45989459 1.30338487 -1.73131425 0.64560999 0 0 Z " fill="#CDAA38" transform="translate(152,176)"/>
<path d="M0 0 C2.66666667 0.66666667 5.33333333 1.33333333 8 2 C8.12375 2.804375 8.2475 3.60875 8.375 4.4375 C8.58125 5.283125 8.7875 6.12875 9 7 C9.66 7.33 10.32 7.66 11 8 C7.24026115 8 6.54322371 7.03457593 3.8125 4.5625 C3.09707031 3.92441406 2.38164062 3.28632812 1.64453125 2.62890625 C1.10183594 2.09136719 0.55914062 1.55382812 0 1 C0 0.67 0 0.34 0 0 Z " fill="#271305" transform="translate(292,117)"/>
<path d="M0 0 C3.74281699 2.38179263 6.97727468 4.74475735 10 8 C9.67 8.66 9.34 9.32 9 10 C5.48200238 8.04555688 2.60791131 6.09085785 0 3 C0 2.01 0 1.02 0 0 Z " fill="#1F1002" transform="translate(192,294)"/>
<path d="M0 0 C0 0.66 0 1.32 0 2 C-0.928125 2.33 -1.85625 2.66 -2.8125 3 C-7.20727645 5.75750679 -7.55682077 8.10922593 -9 13 C-9.74559884 10.43122153 -10.03753637 9.16682831 -9.4375 6.5 C-7.43124532 3.01086142 -4.21721909 0 0 0 Z " fill="#EFC11A" transform="translate(109,198)"/>
<path d="M0 0 C0.66 0.33 1.32 0.66 2 1 C2 1.99 2 2.98 2 4 C2.31088368 5.67099977 2.64080332 7.33871537 3 9 C0.69 7.35 -1.62 5.7 -4 4 C-3.67 3.01 -3.34 2.02 -3 1 C-2.01 0.67 -1.02 0.34 0 0 Z " fill="#CBAA38" transform="translate(169,51)"/>
<path d="M0 0 C5.72108435 2.33081214 9.31913178 7.22850416 13 12 C10 12 10 12 7.51953125 9.62890625 C6.60868353 8.61434157 5.7066273 7.59183057 4.8125 6.5625 C4.34908203 6.04623047 3.88566406 5.52996094 3.40820312 4.99804688 C0 1.15817148 0 1.15817148 0 0 Z " fill="#E4BB2A" transform="translate(189,288)"/>
<path d="M0 0 C0 0.66 0 1.32 0 2 C-0.66 2 -1.32 2 -2 2 C-2.33 2.99 -2.66 3.98 -3 5 C-6.3 5.33 -9.6 5.66 -13 6 C-10.87838666 3.87838666 -9.2266841 3.07013751 -6.5 1.875 C-5.7059375 1.52179688 -4.911875 1.16859375 -4.09375 0.8046875 C-2 0 -2 0 0 0 Z " fill="#D5AA36" transform="translate(210,150)"/>
<path d="M0 0 C3 0 3 0 6 1 C4.6875 3.5 4.6875 3.5 3 6 C2.01 6 1.02 6 0 6 C-0.38218767 4.34385343 -0.71395102 2.67542976 -1 1 C-0.67 0.67 -0.34 0.34 0 0 Z " fill="#030302" transform="translate(234,278)"/>
<path d="M0 0 C-1.95585325 1.00484204 -3.91476237 2.00373805 -5.875 3 C-6.96554688 3.556875 -8.05609375 4.11375 -9.1796875 4.6875 C-12 6 -12 6 -14 6 C-14 5.01 -14 4.02 -14 3 C-12.23358317 2.3012307 -10.46167336 1.61633417 -8.6875 0.9375 C-7.20830078 0.36322266 -7.20830078 0.36322266 -5.69921875 -0.22265625 C-3 -1 -3 -1 0 0 Z " fill="#D3AE3E" transform="translate(170,206)"/>
<path d="M0 0 C4.24822374 0.47202486 6.19989709 2.96655518 9 6 C6.03 5.505 6.03 5.505 3 5 C3 4.34 3 3.68 3 3 C1.68 3 0.36 3 -1 3 C-0.67 2.01 -0.34 1.02 0 0 Z " fill="#E7B92B" transform="translate(273,104)"/>
<path d="M0 0 C1.32 0.33 2.64 0.66 4 1 C2.04414675 2.00484204 0.08523763 3.00373805 -1.875 4 C-2.96554688 4.556875 -4.05609375 5.11375 -5.1796875 5.6875 C-8 7 -8 7 -10 7 C-9.67 6.01 -9.34 5.02 -9 4 C-6.93359375 3.26953125 -6.93359375 3.26953125 -4.4375 2.8125 C-3.61121094 2.65394531 -2.78492188 2.49539062 -1.93359375 2.33203125 C-1.29550781 2.22246094 -0.65742188 2.11289062 0 2 C0 1.34 0 0.68 0 0 Z " fill="#271402" transform="translate(186,41)"/>
<path d="M0 0 C2 0 2 0 4.5 2.3125 C7 5 7 5 9 8 C7.68 7.67 6.36 7.34 5 7 C5 6.34 5 5.68 5 5 C3.68 5 2.36 5 1 5 C1 4.34 1 3.68 1 3 C0.01 2.67 -0.98 2.34 -2 2 C-1.34 1.34 -0.68 0.68 0 0 Z " fill="#251506" transform="translate(163,269)"/>
<path d="M0 0 C0.99 0.33 1.98 0.66 3 1 C1.39967863 1.84069415 -0.20541171 2.67231505 -1.8125 3.5 C-3.15248047 4.19609375 -3.15248047 4.19609375 -4.51953125 4.90625 C-7 6 -7 6 -10 6 C-10.33 5.01 -10.66 4.02 -11 3 C-10.37351563 2.86722656 -9.74703125 2.73445312 -9.1015625 2.59765625 C-8.28429687 2.42105469 -7.46703125 2.24445313 -6.625 2.0625 C-5.81289062 1.88847656 -5.00078125 1.71445313 -4.1640625 1.53515625 C-1.970537 1.07669307 -1.970537 1.07669307 0 0 Z " fill="#D5B136" transform="translate(141,217)"/>
<path d="M0 0 C0.99 0.66 1.98 1.32 3 2 C1.47291037 5.43595166 -0.59927045 8.11912454 -3 11 C-3.66 10.34 -4.32 9.68 -5 9 C-4.34 9 -3.68 9 -3 9 C-2.01 6.03 -1.02 3.06 0 0 Z " fill="#D8D8D8" transform="translate(309,195)"/>
<path d="M0 0 C-2.02196167 2.02196167 -3.25864486 2.67551358 -5.875 3.6875 C-6.55304688 3.95949219 -7.23109375 4.23148438 -7.9296875 4.51171875 C-10.31107782 5.07336741 -11.70430191 4.76694846 -14 4 C-12.23494565 3.13395466 -10.46271926 2.28251358 -8.6875 1.4375 C-7.70136719 0.96183594 -6.71523437 0.48617187 -5.69921875 -0.00390625 C-3 -1 -3 -1 0 0 Z " fill="#CFA937" transform="translate(128,189)"/>
<path d="M0 0 C4.24822374 0.47202486 6.19989709 2.96655518 9 6 C5.87709365 5.51421457 3.00419641 5.0013988 0 4 C0 2.68 0 1.36 0 0 Z " fill="#E4B92A" transform="translate(226,64)"/>
<path d="M0 0 C0 0.66 0 1.32 0 2 C-2.97 3.32 -5.94 4.64 -9 6 C-9.66 5.34 -10.32 4.68 -11 4 C-9.5437455 3.32880451 -8.08492133 2.66318193 -6.625 2 C-5.81289063 1.62875 -5.00078125 1.2575 -4.1640625 0.875 C-2 0 -2 0 0 0 Z " fill="#2F2006" transform="translate(290,151)"/>
<path d="M0 0 C2 0.1875 2 0.1875 4 1 C4.66 1.99 5.32 2.98 6 4 C4.02 4.33 2.04 4.66 0 5 C-0.66 4.01 -1.32 3.02 -2 2 C-1.34 1.34 -0.68 0.68 0 0 Z " fill="#EDBF21" transform="translate(258,91)"/>
<path d="M0 0 C2.70931419 0.15481795 4.46584039 0.48172081 6.4453125 2.40234375 C7.67679642 3.89771708 8.8429837 5.4462924 10 7 C9.67 7.66 9.34 8.32 9 9 C7.68412059 7.87895467 6.37239647 6.75303035 5.0625 5.625 C4.33160156 4.99851562 3.60070312 4.37203125 2.84765625 3.7265625 C1 2 1 2 0 0 Z " fill="#2E1903" transform="translate(238,71)"/>
<path d="M0 0 C2.97 0.495 2.97 0.495 6 1 C6.33 2.32 6.66 3.64 7 5 C8.32 5.33 9.64 5.66 11 6 C10.67 6.66 10.34 7.32 10 8 C8.51714758 7.04737966 7.03881799 6.08771595 5.5625 5.125 C4.73878906 4.59132813 3.91507813 4.05765625 3.06640625 3.5078125 C1 2 1 2 0 0 Z " fill="#DDB533" transform="translate(224,320)"/>
<path d="M0 0 C2.64 0 5.28 0 8 0 C8 0.99 8 1.98 8 3 C7.34 3.66 6.68 4.32 6 5 C2.60085025 3.86695008 1.94745549 2.87481525 0 0 Z " fill="#030304" transform="translate(244,290)"/>
<path d="M0 0 C0.33 0.66 0.66 1.32 1 2 C0.0625 4.125 0.0625 4.125 -1 6 C-1.66 6 -2.32 6 -3 6 C-3 7.65 -3 9.3 -3 11 C-3.99 11.495 -3.99 11.495 -5 12 C-4.10164835 4.21428571 -4.10164835 4.21428571 -2 1 C-1.34 0.67 -0.68 0.34 0 0 Z " fill="#E7B934" transform="translate(95,219)"/>
<path d="M0 0 C0.66 0.33 1.32 0.66 2 1 C1.01 2.485 1.01 2.485 0 4 C0.66 4.66 1.32 5.32 2 6 C-2 6 -2 6 -5 4 C-3.36587557 2.29159719 -2.13093906 1.06546953 0 0 Z " fill="#E7B725" transform="translate(158,173)"/>
<path d="M0 0 C-1 3 -1 3 -2.70703125 3.984375 C-3.40183594 4.23703125 -4.09664062 4.4896875 -4.8125 4.75 C-5.49957031 5.01296875 -6.18664062 5.2759375 -6.89453125 5.546875 C-9.28143969 6.06056958 -10.70637773 5.76282269 -13 5 C-11.21046815 4.16209211 -9.41830305 3.32980604 -7.625 2.5 C-6.62726563 2.0359375 -5.62953125 1.571875 -4.6015625 1.09375 C-2 0 -2 0 0 0 Z " fill="#C5A336" transform="translate(223,144)"/>
<path d="M0 0 C3.4375 0.8125 3.4375 0.8125 7 2 C7.33 2.99 7.66 3.98 8 5 C8.66 5.33 9.32 5.66 10 6 C9.67 6.99 9.34 7.98 9 9 C7.49704815 7.69088122 5.99770689 6.37761608 4.5 5.0625 C3.6646875 4.33160156 2.829375 3.60070312 1.96875 2.84765625 C1.3190625 2.23792969 0.669375 1.62820312 0 1 C0 0.67 0 0.34 0 0 Z " fill="#CAA533" transform="translate(242,119)"/>
<path d="M0 0 C-1 2 -1 2 -4.3125 3.1875 C-7.75666263 3.94638329 -8.83008446 3.98666245 -12 3 C-10.75823305 2.29773859 -9.50614401 1.61370891 -8.25 0.9375 C-7.20585937 0.36322266 -7.20585937 0.36322266 -6.140625 -0.22265625 C-3.63859372 -1.1312406 -2.4667645 -0.88336837 0 0 Z " fill="#DCB133" transform="translate(184,47)"/>
<path d="M0 0 C5.75 3.625 5.75 3.625 8 7 C7.01 7.33 6.02 7.66 5 8 C2.27573689 5.64722731 1.1858237 3.37503669 0 0 Z " fill="#211202" transform="translate(232,328)"/>
<path d="M0 0 C0.721875 0.45375 1.44375 0.9075 2.1875 1.375 C4.92046027 3.05070504 4.92046027 3.05070504 7.75 4.0625 C10 5 10 5 11 7 C8.37428995 7.38613383 6.6156121 7.38493778 4.33203125 5.95703125 C2.6875 4.625 2.6875 4.625 0 2 C0 1.34 0 0.68 0 0 Z " fill="#E4B629" transform="translate(235,288)"/>
<path d="M0 0 C-2 3 -2 3 -4.1640625 3.51171875 C-4.97617188 3.56972656 -5.78828125 3.62773437 -6.625 3.6875 C-7.85089844 3.78611328 -7.85089844 3.78611328 -9.1015625 3.88671875 C-9.72804687 3.92410156 -10.35453125 3.96148437 -11 4 C-3.77464789 -1.88732394 -3.77464789 -1.88732394 0 0 Z " fill="#2B1803" transform="translate(236,177)"/>
<path d="M0 0 C0 0.66 0 1.32 0 2 C-1.28913487 2.67154933 -2.58140204 3.33708859 -3.875 4 C-4.59429687 4.37125 -5.31359375 4.7425 -6.0546875 5.125 C-8 6 -8 6 -10 6 C-9.67 5.01 -9.34 4.02 -9 3 C-2.88888889 0 -2.88888889 0 0 0 Z " fill="#271703" transform="translate(255,167)"/>
<path d="M0 0 C0.66 0.33 1.32 0.66 2 1 C-2.38512875 4.31558515 -5.37458159 5.54996653 -11 6 C-7.57874946 3.12614955 -4.16111563 1.54115394 0 0 Z " fill="#C4A341" transform="translate(195,156)"/>
<path d="M0 0 C-2.22825644 2.22825644 -3.65761628 2.69239369 -6.625 3.625 C-7.44226563 3.88539063 -8.25953125 4.14578125 -9.1015625 4.4140625 C-9.72804687 4.60742188 -10.35453125 4.80078125 -11 5 C-10 2 -10 2 -8.3125 0.8125 C-5.45030907 -0.19313465 -3.01172092 -0.13689641 0 0 Z " fill="#241301" transform="translate(190,257)"/>
<path d="M0 0 C0 0.66 0 1.32 0 2 C-5.078125 5.3203125 -5.078125 5.3203125 -7 6 C-9.234375 5.1171875 -9.234375 5.1171875 -11 4 C-9.5437455 3.32880451 -8.08492133 2.66318193 -6.625 2 C-5.81289062 1.62875 -5.00078125 1.2575 -4.1640625 0.875 C-2 0 -2 0 0 0 Z " fill="#2A1702" transform="translate(103,237)"/>
<path d="M0 0 C0.66 0.33 1.32 0.66 2 1 C1.54738642 2.43931117 1.08767021 3.87638999 0.625 5.3125 C0.36976562 6.11300781 0.11453125 6.91351563 -0.1484375 7.73828125 C-1 10 -1 10 -3 13 C-3 10.69 -3 8.38 -3 6 C-2.34 6 -1.68 6 -1 6 C-1.33 5.01 -1.66 4.02 -2 3 C-1.34 2.01 -0.68 1.02 0 0 Z " fill="#251502" transform="translate(85,233)"/>
<path d="M0 0 C-1 2 -1 2 -3.375 3.125 C-6 4 -6 4 -9 4 C-9 3.34 -9 2.68 -9 2 C-3.375 -1.125 -3.375 -1.125 0 0 Z " fill="#D6AD34" transform="translate(179,201)"/>
<path d="M0 0 C-1.98 0.66 -3.96 1.32 -6 2 C-6 2.33 -6 2.66 -6 3 C-8.64 3 -11.28 3 -14 3 C-11.39395012 1.26263341 -9.92766764 0.54996173 -7 -0.1875 C-6.319375 -0.36667969 -5.63875 -0.54585937 -4.9375 -0.73046875 C-3 -1 -3 -1 0 0 Z " fill="#1C0C03" transform="translate(269,164)"/>
<path d="M0 0 C0 0.66 0 1.32 0 2 C-1.96147874 3.38938077 -3.96166576 4.7260411 -6 6 C-6.66 5.01 -7.32 4.02 -8 3 C-3.375 0 -3.375 0 0 0 Z " fill="#FABC16" transform="translate(179,270)"/>
<path d="M0 0 C0.66 0.33 1.32 0.66 2 1 C2.625 4.0625 2.625 4.0625 3 7 C0.69 5.35 -1.62 3.7 -4 2 C-2.125 0.9375 -2.125 0.9375 0 0 Z " fill="#251704" transform="translate(211,260)"/>
<path d="M0 0 C2.0625 0.4375 2.0625 0.4375 4 1 C3.1875 2.9375 3.1875 2.9375 2 5 C1.01 5.33 0.02 5.66 -1 6 C-1.042721 4.33388095 -1.04063832 2.66617115 -1 1 C-0.67 0.67 -0.34 0.34 0 0 Z " fill="#FCBB11" transform="translate(103,202)"/>
<path d="M0 0 C-2.6895528 2.6895528 -5.45327417 3.69331154 -9 5 C-9.99 4.67 -10.98 4.34 -12 4 C-7.81413519 0.81076967 -5.29441695 -0.50423019 0 0 Z " fill="#D9B23E" transform="translate(275,157)"/>
<path d="M0 0 C4.875 2.625 4.875 2.625 6 6 C6.66 6.66 7.32 7.32 8 8 C6.35 7.67 4.7 7.34 3 7 C3 6.34 3 5.68 3 5 C2.01 4.67 1.02 4.34 0 4 C0 2.68 0 1.36 0 0 Z " fill="#E2B52B" transform="translate(294,120)"/>
<path d="M0 0 C2.64 1.98 5.28 3.96 8 6 C6.02 6.99 6.02 6.99 4 8 C1.67210485 5.16604069 0.92622107 3.70488428 0 0 Z " fill="#2B1F04" transform="translate(206,89)"/>
<path d="M0 0 C3.26460973 1.80412643 4.88929795 2.83394693 7 6 C4.03 5.505 4.03 5.505 1 5 C0.67 3.35 0.34 1.7 0 0 Z " fill="#DAB035" transform="translate(209,48)"/>
<path d="M0 0 C2.31 0.33 4.62 0.66 7 1 C4.3144406 3.6855594 1.62378672 4.06049974 -2 5 C-1.34 3.35 -0.68 1.7 0 0 Z " fill="#221402" transform="translate(192,252)"/>
<path d="M0 0 C0.33 0.66 0.66 1.32 1 2 C0.22265625 4.1640625 0.22265625 4.1640625 -0.9375 6.625 C-1.31777344 7.44226563 -1.69804688 8.25953125 -2.08984375 9.1015625 C-2.39019531 9.72804687 -2.69054687 10.35453125 -3 11 C-4.20681069 7.05432816 -3.61287128 4.81995829 -2 1 C-1.34 0.67 -0.68 0.34 0 0 Z " fill="#312207" transform="translate(91,222)"/>
<path d="M0 0 C0 0.66 0 1.32 0 2 C-6.96428571 5.34821429 -6.96428571 5.34821429 -11 4 C-9.5437455 3.32880451 -8.08492133 2.66318193 -6.625 2 C-5.81289062 1.62875 -5.00078125 1.2575 -4.1640625 0.875 C-2 0 -2 0 0 0 Z " fill="#CCA73A" transform="translate(138,183)"/>
<path d="M0 0 C-3.79692186 2.82561627 -6.18569279 4.56638908 -11 4 C-3.77464789 -1.88732394 -3.77464789 -1.88732394 0 0 Z " fill="#C7A337" transform="translate(171,169)"/>
<path d="M0 0 C2.97 1.98 2.97 1.98 6 4 C5.34 4.66 4.68 5.32 4 6 C1.875 5.625 1.875 5.625 0 5 C0 3.33333333 0 1.66666667 0 0 Z " fill="#1B0D04" transform="translate(243,121)"/>
<path d="M0 0 C2.97 0.495 2.97 0.495 6 1 C6.33 1.99 6.66 2.98 7 4 C7.66 4.66 8.32 5.32 9 6 C4.58763974 6 3.21615077 3.9302707 0 1 C0 0.67 0 0.34 0 0 Z " fill="#CEA83C" transform="translate(190,75)"/>
<path d="M0 0 C-1.26418246 0.69965443 -2.53665402 1.38434763 -3.8125 2.0625 C-4.52019531 2.44535156 -5.22789063 2.82820312 -5.95703125 3.22265625 C-8 4 -8 4 -11 3 C-7.17860188 -0.1390056 -4.83859894 -1.61286631 0 0 Z " fill="#D5B03C" transform="translate(131,224)"/>
<path d="M0 0 C-5.625 3 -5.625 3 -9 3 C-9 2.01 -9 1.02 -9 0 C-5.62182575 -0.84454356 -3.32534757 -1.10844919 0 0 Z " fill="#241004" transform="translate(127,188)"/>
<path d="M0 0 C-2.93828597 2.50298434 -5.17902761 3.46930939 -9 4 C-8.67 3.01 -8.34 2.02 -8 1 C-5.07175348 0.02391783 -3.04386724 -0.08226668 0 0 Z " fill="#221601" transform="translate(199,154)"/>
<path d="M0 0 C2.31 0.33 4.62 0.66 7 1 C7 2.32 7 3.64 7 5 C4.11562221 3.70700306 2.12780579 2.34058637 0 0 Z " fill="#231A05" transform="translate(309,132)"/>
<path d="M0 0 C0.33 0.66 0.66 1.32 1 2 C-0.4375 4.625 -0.4375 4.625 -2 7 C-3.32 6.67 -4.64 6.34 -6 6 C-4 4 -2 2 0 0 Z " fill="#01020A" transform="translate(269,85)"/>
<path d="M0 0 C0.66 0.33 1.32 0.66 2 1 C2.144375 1.639375 2.28875 2.27875 2.4375 2.9375 C2.86165035 5.38210855 2.86165035 5.38210855 6 7 C3.03 6.505 3.03 6.505 0 6 C0 5.34 0 4.68 0 4 C-0.66 4 -1.32 4 -2 4 C-2 3.34 -2 2.68 -2 2 C-1.34 2 -0.68 2 0 2 C0 1.34 0 0.68 0 0 Z " fill="#F4C21E" transform="translate(190,69)"/>
<path d="M0 0 C0.33 0.66 0.66 1.32 1 2 C1.66 2 2.32 2 3 2 C1.63016497 5.16115776 1.0109362 5.9927092 -2 8 C-1.125 2.25 -1.125 2.25 0 0 Z " fill="#232322" transform="translate(145,60)"/>
<path d="M0 0 C2.52588702 2.36292656 3.88820837 3.66462511 5 7 C4.34 7 3.68 7 3 7 C3 6.34 3 5.68 3 5 C2.38125 4.71125 1.7625 4.4225 1.125 4.125 C-1 3 -1 3 -3 1 C-2.01 0.67 -1.02 0.34 0 0 Z " fill="#F3C21A" transform="translate(177,59)"/>
<path d="M0 0 C-0.33 1.32 -0.66 2.64 -1 4 C-4.875 2.25 -4.875 2.25 -6 0 C-3.50907189 -1.24546405 -2.58919267 -0.7767578 0 0 Z " fill="#E4EAEA" transform="translate(233,48)"/>
<path d="M0 0 C-0.33 1.32 -0.66 2.64 -1 4 C-5.75 3.25 -5.75 3.25 -8 1 C-3.375 -1.125 -3.375 -1.125 0 0 Z " fill="#1E1E1F" transform="translate(164,44)"/>
<path d="M0 0 C3.125 0.375 3.125 0.375 6 1 C5.01 1.495 5.01 1.495 4 2 C3.67 2.99 3.34 3.98 3 5 C1.35 4.01 -0.3 3.02 -2 2 C-1.34 1.34 -0.68 0.68 0 0 Z " fill="#EAECE8" transform="translate(211,32)"/>
<path d="M0 0 C1.0828125 0.2475 1.0828125 0.2475 2.1875 0.5 C4.86427545 0.97587119 7.28949487 1.077443 10 1 C7.06337384 2.95775078 5.4262944 3.56073149 2 4 C1.34 3.67 0.68 3.34 0 3 C0 2.01 0 1.02 0 0 Z " fill="#F0C016" transform="translate(160,203)"/>
<path d="M0 0 C-3.3 1.32 -6.6 2.64 -10 4 C-9.67 3.01 -9.34 2.02 -9 1 C-3.79245283 -1.26415094 -3.79245283 -1.26415094 0 0 Z " fill="#261702" transform="translate(138,183)"/>
<path d="M0 0 C0 1.32 0 2.64 0 4 C-0.99 4.33 -1.98 4.66 -3 5 C-3.99 4.34 -4.98 3.68 -6 3 C-6 2.34 -6 1.68 -6 1 C-3.92446352 0.4465236 -2.15634036 0 0 0 Z " fill="#F6BF1C" transform="translate(216,149)"/>
<path d="M0 0 C0.66 0.33 1.32 0.66 2 1 C1.67 1.99 1.34 2.98 1 4 C-2.0625 5.1875 -2.0625 5.1875 -5 6 C-5.33 5.01 -5.66 4.02 -6 3 C-4.02 3 -2.04 3 0 3 C0 2.01 0 1.02 0 0 Z " fill="#1A0802" transform="translate(250,127)"/>
<path d="M0 0 C1.32 0 2.64 0 4 0 C4.66 1.98 5.32 3.96 6 6 C5.01 6.66 4.02 7.32 3 8 C2.87625 6.865625 2.7525 5.73125 2.625 4.5625 C2.41875 3.386875 2.2125 2.21125 2 1 C1.34 0.67 0.68 0.34 0 0 Z " fill="#EEBF26" transform="translate(250,124)"/>
<path d="M0 0 C2.97 1.98 2.97 1.98 6 4 C5.01 4.66 4.02 5.32 3 6 C1.68 5.34 0.36 4.68 -1 4 C-0.67 2.68 -0.34 1.36 0 0 Z " fill="#2A1804" transform="translate(214,96)"/>
<path d="M0 0 C-0.33 1.65 -0.66 3.3 -1 5 C-2.32 5 -3.64 5 -5 5 C-4.625 3.0625 -4.625 3.0625 -4 1 C-2 0 -2 0 0 0 Z " fill="#E3E3E3" transform="translate(271,299)"/>
<path d="M0 0 C0.66 0.99 1.32 1.98 2 3 C0.35 3.66 -1.3 4.32 -3 5 C-3.66 4.01 -4.32 3.02 -5 2 C-3.35 1.34 -1.7 0.68 0 0 Z " fill="#1F1F20" transform="translate(113,182)"/>
<path d="M0 0 C0.99 0.33 1.98 0.66 3 1 C3.33 1.99 3.66 2.98 4 4 C2.02 4.99 2.02 4.99 0 6 C0 5.34 0 4.68 0 4 C-0.66 3.67 -1.32 3.34 -2 3 C-1.34 3 -0.68 3 0 3 C0 2.01 0 1.02 0 0 Z " fill="#130D09" transform="translate(316,136)"/>
<path d="M0 0 C3.16115776 1.36983503 3.9927092 1.9890638 6 5 C3.03 4.505 3.03 4.505 0 4 C0 2.68 0 1.36 0 0 Z " fill="#D2AA2F" transform="translate(235,70)"/>
</svg>
